<?xml version="1.0" encoding="UTF-8"?>
<svg id="Layer_1" data-name="Layer 1" xmlns="http://www.w3.org/2000/svg" version="1.1" viewBox="0 0 1808 766">
  <defs>
    <style>
      .cls-1 {
        fill: #7d3f98;
        stroke-width: 0px;
      }
    </style>
  </defs>
  <path class="cls-1" d="M824.2,437.6c84.5,0,127.9-26.5,127.9-83.5s-35.8-82-113.5-82-131.8,42-140.4,117.3c-13.7-.9-28.8-1.2-49.2-1.3,0-4.1,0-8.2,0-12.4,0-76.3-31.6-103.9-115.8-103.9s-77.4,6.1-99.5,15.1l3.3,60.9c19.3-10.2,48.1-20.1,75.3-20.1s50.2,15.9,50.2,54v5.7c-2.7,0-9.6,0-13.3,0-95.9,0-140.4,29-140.4,82.9s27.6,88.1,106.2,88.1,82.4-5.8,135.1-5.8c-3.9-22.2-4-54.2-4-76.1s.6-25.4,1.2-41.1c22.5.2,39.1.8,50,1.3,8.2,89.1,54.4,122,150.6,122s71.5-6,90.4-14.8l-3.3-60.9c-18.7,10.8-44.7,19.7-73.3,19.7-47.3,0-72.9-24.7-72.9-63.6v-1.9c8.5.4,25.3.7,35.2.7ZM535.8,505c-29.2,0-41.7-9.7-41.7-34.2s15.9-36.9,55.9-36.9,8.2,0,11.4.2c-.2,22.8-.7,49.4.6,67.9-6.9,1.9-17.2,3-26.1,3ZM788.6,390.5v-1.4c0-38.2,12.1-66.3,47.2-66.3s32.7,10.4,32.7,29.3-17.7,39-54.6,39-18.3,0-25.2-.7ZM1124.9,497.4c-28.3,0-36.6-11.2-36.6-52.2v-106h55.8v-58.9h-54.9c0-20.9,1.7-51.7,3.4-72.8h-51.7c-6.8,51.5-21.7,78-68.7,85.8-.2,13.8.6,32.8,0,45.9h31.3c-.5,29.2-1.4,82.7-1.4,131.3s32.2,87.5,92.6,87.5,51.1-4.3,58.3-6.3l-3.7-60.5c-5.3,3.6-15.7,6.2-24.5,6.2ZM1713.1,375.7c0-76.3-31.6-103.9-115.7-103.9s-77.4,6.1-99.5,15.1l3.3,60.9c19.3-10.2,48-20.1,75.3-20.1s50.2,15.9,50.2,54v5.7c-2.7,0-9.5,0-13.2,0-96,0-140.4,29-140.4,82.9s27.6,88.1,106.2,88.1,82.4-5.8,135-5.8c-3.8-22.2-3.9-54.2-3.9-76.1,0-24.9,2.5-59.7,2.5-100.6ZM1599.8,505c-29.3,0-41.7-9.7-41.7-34.2s15.9-36.9,55.9-36.9,8.1,0,11.3.2c0,22.8-.7,49.4.7,67.9-6.9,1.9-17.3,3-26.1,3ZM1438,425.5c0-23,.5-53.6.5-53.6,0-68.9-30.2-99.8-115.7-99.8s-82.2,8.4-135.7,8.4c3,48.3,3.1,108.1,2.9,145.1.2,37.6-1.3,105.1-2.9,126.8h91.8c-2.1-21.8-3.9-84.5-3.7-126.8,0-24.1.3-53.2,1.3-92.3,9.2-3.1,20.8-5.5,33.3-5.5,32.2,0,42.5,15.1,42.5,56.5,0,0,.5,26,.5,41.3,0,37.6-1.3,105.1-2.9,126.8h91.8c-2.1-22-4-84.7-3.7-127ZM300.7,259.7c-8.6-8.6-19.8-12.9-30.9-12.9s-22.5,4.3-31.1,13l-50.9,51-51-51c-8.7-8.8-19.9-13.1-31.1-13.1s-22.4,4.3-31,12.9l-62,62c-17.1,17.1-17.1,44.8,0,62l174.9,174.9,174.9-174.9c17.2-17.1,17.1-44.8,0-62l-61.9-61.9ZM1786,287.7c0-9.3-5.7-13.2-16.7-13.2h-17.3v45.6h7.5v-19.5h7l11.8,19.5h8.5l-12.8-20.1c6.9-.7,12-4.1,12-12.4ZM1759.5,294.3v-13.4h9.1c4.5,0,9.9.7,9.9,6.1s-5,7.1-10.5,7.1h-8.5ZM1767.6,255.4c-21.8,0-40.5,16.5-40.5,41.2s16.9,41.2,40.5,41.2,40.4-16.4,40.4-41.2-18.7-41.2-40.4-41.2ZM1767.6,330.7c-19.6,0-31.8-15.3-31.8-34s13.8-34,31.8-34,31.5,14,31.5,34-13.8,34-31.5,34Z"/>
</svg>