<svg width="403" height="48" viewBox="0 0 403 48" fill="none" xmlns="http://www.w3.org/2000/svg">
<g clip-path="url(#clip0_1499_20880)">
<path d="M25.8922 32.0545C19.9245 25.4424 11.5647 16.4303 4.43721 9.52024V18.186C4.43721 27.5766 5.16204 29.88 7.63452 30.5645V31.2008C6.69224 31.1605 5.24258 31.1122 3.67211 31.1122C2.22244 31.1122 1.19962 31.1525 0.305664 31.2008V30.5645C2.60902 29.88 2.64929 27.5364 2.64929 18.1457C2.64929 7.04776 2.64929 3.59272 2.48016 -0.546875H3.20499C9.68821 6.66118 17.8788 15.3672 24.4023 21.9793V13.0155C24.4023 3.36722 23.6775 1.32158 21.205 0.637018V0.000776052C22.1473 0.0410445 23.5969 0.0893667 25.1674 0.0893667C26.6171 0.0893667 27.6399 0.0490982 28.5338 0.000776052V0.637018C26.2305 1.32158 26.1902 3.41554 26.1902 13.0558V23.3404C26.1902 26.1994 26.2305 29.0988 26.4479 32.0464H25.8922V32.0545Z" fill="#1E70B8"/>
<path d="M49.5216 26.7221C47.5162 29.8389 44.786 31.5463 41.4598 31.5463C35.9994 31.5463 31.0947 27.6161 31.0947 21.1329C31.0947 14.4725 36.2571 10.6309 41.1618 10.6309C45.3417 10.6309 49.6907 12.6765 49.6907 19.1275H36.386V19.6429C36.386 25.1517 39.3256 28.7758 43.4652 28.7758C45.4303 28.7758 47.2585 27.9624 49.135 26.1745L49.5216 26.7221ZM44.4477 17.7584C44.4477 13.8765 43.3363 11.7825 41.033 11.7825C38.5605 11.7825 36.9417 14.5127 36.5149 17.7584H44.4477Z" fill="#1E70B8"/>
<path d="M69.6961 31.7966L65.2586 19.2087L60.9096 31.7966H59.7579L54.2169 16.1322C52.9364 12.5483 52.6384 11.8637 51.2773 11.4369V10.8006C51.8733 10.8006 53.0653 10.8409 54.6035 10.8409C56.2223 10.8409 59.6371 10.8006 60.2331 10.8006V11.4369C59.2102 11.6946 58.872 12.2906 58.872 13.1443C58.872 13.9577 59.2102 15.0208 59.5968 16.2208L62.029 23.606L66.4666 10.4141H67.5297L71.9673 23.606L74.3592 16.5188C74.7861 15.2785 75.0438 14.1268 75.0438 13.3214C75.0438 12.2584 74.5767 11.6543 73.6344 11.4449V10.8087C74.2304 10.8087 75.1243 10.849 77.0008 10.849C78.4102 10.849 79.3042 10.8087 79.9002 10.8087V11.4449C78.9579 11.6543 77.5565 12.5966 75.5512 18.3147L70.8559 31.8047H69.6961V31.7966Z" fill="#1E70B8"/>
<path d="M114.781 22.6228C114.741 24.6685 114.652 28.3409 114.652 31.2C111.455 31.1114 104.585 31.1114 99.4708 31.1114C97.8923 31.1114 95.4198 31.1517 94.4775 31.2V30.5638C96.4426 30.2255 96.6118 29.3235 96.6118 24.5477V6.6604C96.6118 1.87651 96.4426 0.98255 94.4775 0.644295V0C95.4198 0.0402685 97.8923 0.0885906 99.4708 0.0885906C104.585 0.0885906 111.624 0.0885906 114.821 0C114.781 1.07114 114.733 2.89933 114.733 4.73557C114.733 5.84698 114.733 6.91007 114.773 7.81208H114.137C111.922 1.62685 109.699 1.62685 105.221 1.62685C104.239 1.62685 102.829 1.71544 102.322 1.79597V14.3436H104.835C107.605 14.3436 109.61 14.0456 110.504 10.6711H111.141C111.052 11.9517 110.971 13.4013 110.971 14.6416C110.971 16.349 111.06 17.9275 111.141 18.9503H110.504C109.908 16.0027 107.605 15.7933 104.835 15.7933H102.322V29.404C102.837 29.4926 104.239 29.5732 105.221 29.5732C109.063 29.5732 111.962 29.2752 114.137 22.6148H114.781V22.6228Z" fill="#1E70B8"/>
<path d="M128.046 31.2C127.103 31.1597 125.146 31.1114 123.568 31.1114C121.989 31.1114 120.024 31.1517 119.09 31.2V30.5637C120.37 30.306 120.926 30.0966 120.926 26.6819V16.4295C120.926 13.8282 120.886 12.9262 119.605 12.5879V11.9517C122.037 11.9517 124.381 11.4846 126.217 10.6309V14.1342C128.69 11.6617 129.882 10.6309 131.807 10.6309C133.812 10.6309 135.689 12.0403 135.689 16.6067H130.526C130.526 14.7302 129.801 14.1342 128.69 14.1342C127.836 14.1342 127.071 14.5208 126.217 15.5033V26.6819C126.217 30.0966 126.773 30.306 128.054 30.5637V31.2H128.046Z" fill="#1E70B8"/>
<path d="M157.006 29.3235C156.193 30.4752 154.96 31.5463 153.044 31.5463C151.723 31.5463 150.442 31.0309 149.886 29.5007C148.05 30.9101 146.133 31.5463 144.088 31.5463C140.802 31.5463 137.862 29.8389 137.862 26.6819C137.862 23.1382 141.486 21.1329 145.537 21.1329C146.947 21.1329 148.437 21.3906 149.588 21.9463V16.8644C149.588 12.8537 148.437 11.7825 146.689 11.7825C144.515 11.7825 143.79 13.4899 143.79 17.2027H138.627C139.312 12 143.315 10.6309 146.987 10.6309C151.723 10.6309 154.88 12.8939 154.88 17.9758V26.553C154.88 28.5181 155.178 28.9852 155.903 28.9852C156.201 28.9852 156.418 28.8966 156.668 28.7678L157.006 29.3235ZM149.58 23.0497C148.767 22.6631 147.704 22.4537 146.721 22.4537C144.756 22.4537 143.435 23.396 143.435 25.957C143.435 28.647 144.845 29.6698 146.504 29.6698C147.567 29.6698 148.678 29.2429 149.621 28.4295C149.58 28.0913 149.58 27.745 149.58 27.3664V23.0497Z" fill="#1E70B8"/>
<path d="M0 36.5156H0.869799V44.3519H4.20403V45.1895H0V36.5156Z" fill="#1E70B8"/>
<path d="M6.08862 36.1289C6.27385 36.1289 6.43493 36.1933 6.57184 36.3302C6.70875 36.4672 6.77318 36.6282 6.77318 36.8135C6.77318 36.9987 6.70875 37.1598 6.57184 37.2886C6.44298 37.4255 6.28191 37.49 6.08862 37.49C5.90338 37.49 5.74231 37.4255 5.61345 37.2886C5.47654 37.1517 5.41211 36.9987 5.41211 36.8135C5.41211 36.6282 5.47654 36.4672 5.61345 36.3302C5.74231 36.1933 5.90338 36.1289 6.08862 36.1289ZM5.67788 38.7705H6.49936V45.1893H5.67788V38.7705Z" fill="#1E70B8"/>
<path d="M11.211 36.2986V37.1039C10.905 36.9751 10.6473 36.9106 10.4298 36.9106C10.2687 36.9106 10.1318 36.9428 10.0271 37.0073C9.92243 37.0717 9.858 37.1442 9.82579 37.2328C9.80163 37.3133 9.78552 37.5388 9.78552 37.9093V38.7791H11.1224V39.4959H9.78552L9.77747 45.1979H8.95599V39.4959H8.11035V38.7791H8.95599V37.7724C8.95599 37.3133 8.99626 36.9831 9.08485 36.7898C9.16539 36.5965 9.31035 36.4355 9.51169 36.3147C9.71304 36.1939 9.95465 36.1375 10.2446 36.1375C10.5184 36.1294 10.8406 36.1858 11.211 36.2986Z" fill="#1E70B8"/>
<path d="M18.1212 43.0628L18.8138 43.4333C18.5883 43.8843 18.3225 44.2467 18.0246 44.5205C17.7266 44.7944 17.3883 45.0038 17.0178 45.1487C16.6474 45.2937 16.2205 45.3662 15.7534 45.3662C14.7064 45.3662 13.893 45.0199 13.297 44.3353C12.7091 43.6507 12.4111 42.8776 12.4111 42.0078C12.4111 41.1944 12.6608 40.4695 13.1601 39.8333C13.7964 39.0199 14.642 38.6172 15.7051 38.6172C16.8004 38.6172 17.6702 39.036 18.3225 39.8575C18.7897 40.4454 19.0232 41.1783 19.0313 42.0481H13.2648C13.2809 42.7971 13.5225 43.4011 13.9816 43.8843C14.4407 44.3595 15.0125 44.6011 15.689 44.6011C16.0192 44.6011 16.3333 44.5447 16.6393 44.432C16.9454 44.3192 17.2111 44.1662 17.4286 43.9809C17.638 43.7796 17.8715 43.4816 18.1212 43.0628ZM18.1212 41.3313C18.0084 40.8883 17.8474 40.542 17.638 40.2762C17.4286 40.0105 17.1467 39.8011 16.8004 39.64C16.4541 39.4789 16.0917 39.3984 15.7051 39.3984C15.0769 39.3984 14.5373 39.5997 14.0782 40.0024C13.748 40.3004 13.4984 40.7434 13.3293 41.3313H18.1212Z" fill="#1E70B8"/>
<path d="M24.6445 36.5156H25.5143V45.1895H24.6445V36.5156Z" fill="#1E70B8"/>
<path d="M27.7131 38.7707H28.5346V39.9224C28.8648 39.4794 29.2272 39.1492 29.6299 38.9318C30.0326 38.7143 30.4675 38.6016 30.9346 38.6016C31.4178 38.6016 31.8366 38.7224 32.2071 38.964C32.5776 39.2056 32.8514 39.5358 33.0286 39.9465C33.2057 40.3573 33.2943 41.0016 33.2943 41.8714V45.1734H32.4729V42.113C32.4729 41.372 32.4406 40.8808 32.3843 40.6311C32.2876 40.2042 32.1024 39.8902 31.8366 39.6727C31.5628 39.4553 31.2084 39.3506 30.7735 39.3506C30.2742 39.3506 29.8313 39.5197 29.4286 39.8499C29.0339 40.1801 28.7762 40.5908 28.6474 41.074C28.5668 41.3881 28.5266 41.9761 28.5266 42.8217V45.1734H27.7051V38.7707H27.7131Z" fill="#1E70B8"/>
<path d="M38.6575 39.4714L38.126 40.019C37.683 39.5922 37.2562 39.3747 36.8293 39.3747C36.5636 39.3747 36.33 39.4633 36.1367 39.6405C35.9434 39.8177 35.8468 40.0271 35.8468 40.2606C35.8468 40.47 35.9273 40.6633 36.0803 40.8566C36.2414 41.0499 36.5716 41.2754 37.0709 41.5331C37.683 41.8472 38.1018 42.1613 38.3193 42.4512C38.5367 42.7492 38.6414 43.0875 38.6414 43.4579C38.6414 43.9814 38.4562 44.4324 38.0857 44.7949C37.7152 45.1653 37.2562 45.3425 36.7005 45.3425C36.33 45.3425 35.9756 45.262 35.6374 45.1009C35.2991 44.9398 35.0253 44.7143 34.7998 44.4324L35.3152 43.8445C35.734 44.3197 36.185 44.5613 36.6602 44.5613C36.9904 44.5613 37.2723 44.4566 37.5058 44.2472C37.7394 44.0378 37.8522 43.7881 37.8522 43.4982C37.8522 43.2646 37.7716 43.0553 37.6186 42.87C37.4656 42.6928 37.1193 42.4593 36.5797 42.1855C35.9998 41.8875 35.6052 41.5895 35.3958 41.2995C35.1864 41.0096 35.0817 40.6794 35.0817 40.3009C35.0817 39.8096 35.2508 39.4069 35.581 39.0848C35.9112 38.7626 36.33 38.6016 36.8454 38.6016C37.4656 38.6096 38.0616 38.8995 38.6575 39.4714Z" fill="#1E70B8"/>
<path d="M40.3652 38.7695H41.1867V41.7655C41.1867 42.4984 41.227 42.9977 41.3075 43.2796C41.4283 43.6742 41.6538 43.9803 41.984 44.2138C42.3142 44.4393 42.7169 44.5521 43.176 44.5521C43.635 44.5521 44.0297 44.4393 44.3438 44.2219C44.6659 43.9964 44.8834 43.7064 45.0122 43.344C45.0928 43.0944 45.133 42.5709 45.133 41.7655V38.7695H45.9787V41.9185C45.9787 42.8044 45.874 43.4729 45.6726 43.9158C45.4632 44.3668 45.1572 44.7132 44.7384 44.9709C44.3277 45.2286 43.8042 45.3494 43.176 45.3494C42.5478 45.3494 42.0323 45.2205 41.6136 44.9709C41.1948 44.7212 40.8807 44.3668 40.6793 43.9078C40.4699 43.4568 40.3733 42.7722 40.3733 41.8621V38.7695H40.3652Z" fill="#1E70B8"/>
<path d="M47.8633 38.7707H48.7089V39.7049C48.9586 39.3344 49.2244 39.0606 49.5062 38.8754C49.7881 38.6902 50.078 38.6016 50.376 38.6016C50.6015 38.6016 50.8512 38.674 51.1089 38.819L50.6821 39.5116C50.5129 39.4391 50.3599 39.3989 50.2472 39.3989C49.9733 39.3989 49.7076 39.5116 49.4499 39.7371C49.1921 39.9626 48.9989 40.317 48.87 40.7922C48.7653 41.1546 48.717 41.8955 48.717 43.0069V45.1814H47.8713V38.7707H47.8633Z" fill="#1E70B8"/>
<path d="M58.5586 38.7704V45.1892H57.7452V44.0859C57.3989 44.5047 57.0123 44.8268 56.5774 45.0362C56.1505 45.2456 55.6754 45.3584 55.168 45.3584C54.2579 45.3584 53.4848 45.0282 52.8405 44.3678C52.1962 43.7074 51.874 42.91 51.874 41.9678C51.874 41.0416 52.1962 40.2523 52.8485 39.5919C53.5009 38.9396 54.274 38.6094 55.1921 38.6094C55.7156 38.6094 56.1989 38.7221 56.6176 38.9476C57.0445 39.1731 57.415 39.5114 57.7371 39.9543V38.7785H58.5586V38.7704ZM55.2566 39.4067C54.7975 39.4067 54.3707 39.5194 53.9841 39.7449C53.5975 39.9704 53.2834 40.2845 53.0579 40.6953C52.8324 41.106 52.7116 41.5329 52.7116 41.9919C52.7116 42.4429 52.8244 42.8778 53.0579 43.2886C53.2915 43.6993 53.5975 44.0215 53.9921 44.255C54.3787 44.4886 54.8056 44.6013 55.2485 44.6013C55.6995 44.6013 56.1264 44.4886 56.5291 44.2631C56.9317 44.0376 57.2458 43.7235 57.4633 43.3369C57.6807 42.9503 57.7935 42.5074 57.7935 42.0241C57.7935 41.2832 57.5519 40.6631 57.0606 40.1637C56.5693 39.6564 55.9734 39.4067 55.2566 39.4067Z" fill="#1E70B8"/>
<path d="M60.7649 38.7707H61.5864V39.9224C61.9166 39.4794 62.279 39.1492 62.6817 38.9318C63.0844 38.7143 63.5192 38.6016 63.9864 38.6016C64.4696 38.6016 64.8884 38.7224 65.2588 38.964C65.6293 39.2056 65.9031 39.5358 66.0803 39.9465C66.2575 40.3573 66.3461 41.0016 66.3461 41.8714V45.1734H65.5246V42.113C65.5246 41.372 65.4924 40.8808 65.436 40.6311C65.3394 40.2042 65.1541 39.8902 64.8884 39.6727C64.6146 39.4553 64.2602 39.3506 63.8253 39.3506C63.326 39.3506 62.883 39.5197 62.4803 39.8499C62.0857 40.1801 61.828 40.5908 61.6991 41.074C61.6186 41.3881 61.5783 41.9761 61.5783 42.8217V45.1734H60.7568V38.7707H60.7649Z" fill="#1E70B8"/>
<path d="M74.7059 40.1076L74.0535 40.5103C73.4898 39.7613 72.7166 39.3828 71.7421 39.3828C70.9609 39.3828 70.3086 39.6324 69.7931 40.1398C69.2777 40.6391 69.02 41.2512 69.02 41.9761C69.02 42.4432 69.1408 42.8861 69.3743 43.2969C69.6159 43.7076 69.9381 44.0298 70.3488 44.2553C70.7596 44.4808 71.2267 44.5935 71.7421 44.5935C72.6844 44.5935 73.4495 44.215 74.0535 43.466L74.7059 43.9009C74.3998 44.36 73.9891 44.7224 73.4737 44.972C72.9582 45.2298 72.3703 45.3506 71.7099 45.3506C70.6951 45.3506 69.8575 45.0284 69.1891 44.3841C68.5206 43.7398 68.1904 42.9586 68.1904 42.0324C68.1904 41.4123 68.3435 40.8324 68.6575 40.3009C68.9716 39.7693 69.3985 39.3506 69.9461 39.0526C70.4938 38.7546 71.1059 38.6016 71.7824 38.6016C72.2092 38.6016 72.62 38.666 73.0146 38.7948C73.4092 38.9237 73.7475 39.0928 74.0213 39.3022C74.2871 39.5197 74.5206 39.7855 74.7059 40.1076Z" fill="#1E70B8"/>
<path d="M82.0587 43.0628L82.7513 43.4333C82.5258 43.8843 82.26 44.2467 81.9621 44.5205C81.6641 44.7944 81.3258 45.0038 80.9553 45.1487C80.5849 45.2937 80.158 45.3662 79.6909 45.3662C78.6439 45.3662 77.8305 45.0199 77.2345 44.3353C76.6466 43.6507 76.3486 42.8776 76.3486 42.0078C76.3486 41.1944 76.5983 40.4695 77.0976 39.8333C77.7339 39.0199 78.5795 38.6172 79.6426 38.6172C80.7379 38.6172 81.6077 39.036 82.26 39.8575C82.7272 40.4454 82.9607 41.1783 82.9688 42.0481H77.2023C77.2184 42.7971 77.46 43.4011 77.9191 43.8843C78.3782 44.3595 78.95 44.6011 79.6265 44.6011C79.9567 44.6011 80.2708 44.5447 80.5768 44.432C80.8829 44.3192 81.1486 44.1662 81.3661 43.9809C81.5674 43.7796 81.801 43.4816 82.0587 43.0628ZM82.0587 41.3313C81.9459 40.8883 81.7849 40.542 81.5755 40.2762C81.3661 40.0105 81.0842 39.8011 80.7379 39.64C80.3916 39.4789 80.0292 39.3984 79.6426 39.3984C79.0144 39.3984 78.4748 39.5997 78.0157 40.0024C77.6855 40.3004 77.4359 40.7434 77.2668 41.3313H82.0587Z" fill="#1E70B8"/>
<path d="M96.7813 38.127L96.0968 38.6505C95.7182 38.1592 95.2672 37.7888 94.7357 37.531C94.2041 37.2814 93.6243 37.1525 92.9961 37.1525C92.3035 37.1525 91.6672 37.3216 91.0713 37.6518C90.4833 37.982 90.0243 38.4331 89.7021 38.9888C89.38 39.5525 89.2189 40.1807 89.2189 40.8814C89.2189 41.9364 89.5813 42.8223 90.3061 43.531C91.031 44.2398 91.9491 44.5941 93.0525 44.5941C94.2686 44.5941 95.2833 44.119 96.0968 43.1686L96.7813 43.6841C96.3464 44.2317 95.8068 44.6586 95.1625 44.9646C94.5182 45.2626 93.7934 45.4156 92.9961 45.4156C91.482 45.4156 90.282 44.9082 89.4041 43.9015C88.6713 43.0478 88.3008 42.0169 88.3008 40.8089C88.3008 39.5364 88.7437 38.4733 89.6377 37.6035C90.5317 36.7337 91.6431 36.2988 92.98 36.2988C93.7934 36.2988 94.5182 36.4599 95.1706 36.782C95.831 37.0961 96.3625 37.5472 96.7813 38.127Z" fill="#1E70B8"/>
<path d="M101.783 38.6094C102.773 38.6094 103.587 38.9637 104.239 39.6805C104.827 40.3329 105.125 41.106 105.125 42C105.125 42.8939 104.811 43.6832 104.191 44.3517C103.571 45.0201 102.765 45.3584 101.783 45.3584C100.8 45.3584 99.9948 45.0201 99.3747 44.3517C98.7545 43.6832 98.4404 42.8939 98.4404 42C98.4404 41.1141 98.7384 40.3409 99.3263 39.6886C99.9706 38.9718 100.792 38.6094 101.783 38.6094ZM101.775 39.4147C101.09 39.4147 100.502 39.6644 100.003 40.1718C99.5116 40.6792 99.2619 41.2913 99.2619 42.0161C99.2619 42.4832 99.3747 42.91 99.6002 43.3127C99.8257 43.7154 100.132 44.0215 100.51 44.2389C100.897 44.4564 101.316 44.5691 101.767 44.5691C102.226 44.5691 102.644 44.4644 103.023 44.2389C103.401 44.0215 103.708 43.7074 103.933 43.3127C104.159 42.9181 104.271 42.4751 104.271 42.0161C104.271 41.2993 104.022 40.6792 103.53 40.1718C103.047 39.6725 102.459 39.4147 101.775 39.4147Z" fill="#1E70B8"/>
<path d="M107.001 38.7704H107.822V39.8819C108.112 39.4711 108.402 39.1731 108.708 38.9879C109.127 38.7382 109.562 38.6094 110.021 38.6094C110.335 38.6094 110.625 38.6738 110.907 38.7946C111.189 38.9154 111.414 39.0765 111.592 39.2778C111.769 39.4792 111.922 39.7691 112.051 40.1476C112.324 39.6483 112.671 39.2617 113.082 39.004C113.492 38.7382 113.935 38.6094 114.41 38.6094C114.853 38.6094 115.248 38.7221 115.586 38.9476C115.924 39.1731 116.174 39.4872 116.343 39.8819C116.504 40.2845 116.593 40.8886 116.593 41.6859V45.1892H115.747V41.6859C115.747 41.0013 115.699 40.5262 115.602 40.2684C115.506 40.0107 115.337 39.8013 115.103 39.6483C114.869 39.4872 114.579 39.4147 114.257 39.4147C113.855 39.4147 113.492 39.5356 113.162 39.7691C112.832 40.0027 112.59 40.3168 112.437 40.7114C112.284 41.106 112.212 41.7584 112.212 42.6845V45.1973H111.39V41.9114C111.39 41.1382 111.342 40.6147 111.245 40.3329C111.149 40.059 110.979 39.8335 110.738 39.6644C110.496 39.4953 110.214 39.4147 109.884 39.4147C109.506 39.4147 109.143 39.5275 108.813 39.7611C108.483 39.9946 108.233 40.3007 108.072 40.6872C107.911 41.0738 107.831 41.6698 107.831 42.4751V45.1973H107.009V38.7704H107.001Z" fill="#1E70B8"/>
<path d="M118.711 38.7707H119.532V39.9465C119.855 39.4955 120.233 39.1653 120.66 38.9398C121.087 38.7143 121.554 38.6016 122.077 38.6016C122.987 38.6016 123.769 38.9318 124.413 39.5841C125.057 40.2445 125.387 41.0338 125.387 41.9599C125.387 42.9022 125.065 43.7076 124.421 44.36C123.777 45.0204 123.004 45.3506 122.102 45.3506C121.594 45.3506 121.119 45.2459 120.692 45.0284C120.265 44.819 119.879 44.4969 119.532 44.0781V47.5251H118.711V38.7707ZM122.005 39.4069C121.288 39.4069 120.692 39.6566 120.201 40.1559C119.71 40.6553 119.468 41.2754 119.468 42.0163C119.468 42.5076 119.581 42.9425 119.798 43.3291C120.016 43.7157 120.33 44.0298 120.732 44.2553C121.135 44.4808 121.57 44.5935 122.021 44.5935C122.464 44.5935 122.883 44.4808 123.269 44.2472C123.656 44.0136 123.97 43.6995 124.204 43.2808C124.437 42.87 124.55 42.4351 124.55 41.9841C124.55 41.5251 124.437 41.0982 124.204 40.6875C123.978 40.2767 123.664 39.9626 123.277 39.7371C122.891 39.5197 122.464 39.4069 122.005 39.4069Z" fill="#1E70B8"/>
<path d="M133.667 38.7704V45.1892H132.854V44.0859C132.507 44.5047 132.121 44.8268 131.686 45.0362C131.259 45.2456 130.784 45.3584 130.276 45.3584C129.366 45.3584 128.593 45.0282 127.949 44.3678C127.305 43.7074 126.982 42.91 126.982 41.9678C126.982 41.0416 127.305 40.2523 127.957 39.5919C128.609 38.9396 129.382 38.6094 130.301 38.6094C130.824 38.6094 131.307 38.7221 131.726 38.9476C132.153 39.1731 132.523 39.5114 132.846 39.9543V38.7785H133.667V38.7704ZM130.373 39.4067C129.914 39.4067 129.487 39.5194 129.101 39.7449C128.714 39.9704 128.4 40.2845 128.174 40.6953C127.949 41.106 127.828 41.5329 127.828 41.9919C127.828 42.4429 127.941 42.8778 128.174 43.2886C128.408 43.6993 128.714 44.0215 129.109 44.255C129.495 44.4886 129.922 44.6013 130.365 44.6013C130.816 44.6013 131.243 44.4886 131.646 44.2631C132.048 44.0376 132.362 43.7235 132.58 43.3369C132.797 42.9503 132.91 42.5074 132.91 42.0241C132.91 41.2832 132.668 40.6631 132.177 40.1637C131.686 39.6564 131.09 39.4067 130.373 39.4067Z" fill="#1E70B8"/>
<path d="M135.874 38.7707H136.696V39.9224C137.026 39.4794 137.388 39.1492 137.791 38.9318C138.194 38.7143 138.629 38.6016 139.096 38.6016C139.579 38.6016 139.998 38.7224 140.368 38.964C140.739 39.2056 141.013 39.5358 141.19 39.9465C141.367 40.3573 141.455 41.0016 141.455 41.8714V45.1734H140.634V42.113C140.634 41.372 140.602 40.8808 140.545 40.6311C140.449 40.2042 140.264 39.8902 139.998 39.6727C139.724 39.4553 139.37 39.3506 138.935 39.3506C138.435 39.3506 137.992 39.5197 137.59 39.8499C137.195 40.1801 136.937 40.5908 136.808 41.074C136.728 41.3881 136.688 41.9761 136.688 42.8217V45.1734H135.866V38.7707H135.874Z" fill="#1E70B8"/>
<path d="M143.887 36.1289C144.073 36.1289 144.234 36.1933 144.371 36.3302C144.508 36.4672 144.572 36.6282 144.572 36.8135C144.572 36.9987 144.508 37.1598 144.371 37.2886C144.242 37.4255 144.081 37.49 143.887 37.49C143.702 37.49 143.541 37.4255 143.412 37.2886C143.275 37.1517 143.211 36.9987 143.211 36.8135C143.211 36.6282 143.275 36.4672 143.412 36.3302C143.541 36.1933 143.702 36.1289 143.887 36.1289ZM143.477 38.7705H144.298V45.1893H143.477V38.7705Z" fill="#1E70B8"/>
<path d="M151.764 43.0628L152.456 43.4333C152.231 43.8843 151.965 44.2467 151.667 44.5205C151.369 44.7944 151.031 45.0038 150.66 45.1487C150.29 45.2937 149.863 45.3662 149.396 45.3662C148.349 45.3662 147.536 45.0199 146.94 44.3353C146.352 43.6507 146.054 42.8776 146.054 42.0078C146.054 41.1944 146.303 40.4695 146.803 39.8333C147.439 39.0199 148.285 38.6172 149.348 38.6172C150.443 38.6172 151.313 39.036 151.965 39.8575C152.432 40.4454 152.666 41.1783 152.674 42.0481H146.907C146.924 42.7971 147.165 43.4011 147.624 43.8843C148.083 44.3595 148.655 44.6011 149.332 44.6011C149.662 44.6011 149.976 44.5447 150.282 44.432C150.588 44.3192 150.854 44.1662 151.071 43.9809C151.281 43.7796 151.514 43.4816 151.764 43.0628ZM151.764 41.3313C151.651 40.8883 151.49 40.542 151.281 40.2762C151.071 40.0105 150.789 39.8011 150.443 39.64C150.097 39.4789 149.734 39.3984 149.348 39.3984C148.719 39.3984 148.18 39.5997 147.721 40.0024C147.391 40.3004 147.141 40.7434 146.972 41.3313H151.764Z" fill="#1E70B8"/>
<path d="M157.796 39.4714L157.265 40.019C156.822 39.5922 156.395 39.3747 155.968 39.3747C155.702 39.3747 155.469 39.4633 155.275 39.6405C155.082 39.8177 154.985 40.0271 154.985 40.2606C154.985 40.47 155.066 40.6633 155.219 40.8566C155.38 41.0499 155.71 41.2754 156.21 41.5331C156.822 41.8472 157.24 42.1613 157.458 42.4512C157.675 42.7492 157.78 43.0875 157.78 43.4579C157.78 43.9814 157.595 44.4324 157.224 44.7949C156.854 45.1653 156.395 45.3425 155.839 45.3425C155.469 45.3425 155.114 45.262 154.776 45.1009C154.438 44.9398 154.164 44.7143 153.938 44.4324L154.454 43.8445C154.873 44.3197 155.324 44.5613 155.799 44.5613C156.129 44.5613 156.411 44.4566 156.645 44.2472C156.878 44.0378 156.991 43.7881 156.991 43.4982C156.991 43.2646 156.91 43.0553 156.757 42.87C156.604 42.6928 156.258 42.4593 155.718 42.1855C155.138 41.8875 154.744 41.5895 154.534 41.2995C154.325 41.0096 154.22 40.6794 154.22 40.3009C154.22 39.8096 154.389 39.4069 154.72 39.0848C155.05 38.7626 155.469 38.6016 155.984 38.6016C156.604 38.6096 157.2 38.8995 157.796 39.4714Z" fill="#1E70B8"/>
<path d="M176.134 14.7138V7.77148H176.287L180.902 13.095V7.77148H181.586V14.7138H181.433L176.851 9.45471V14.7138H176.134Z" fill="#1E70B8"/>
<path d="M187.482 13.0053L188.037 13.2952C187.852 13.6576 187.643 13.9395 187.401 14.165C187.16 14.3825 186.894 14.5516 186.596 14.6643C186.298 14.7771 185.96 14.8335 185.581 14.8335C184.743 14.8335 184.091 14.5596 183.616 14.012C183.141 13.4643 182.907 12.8442 182.907 12.1516C182.907 11.4992 183.109 10.9194 183.503 10.412C184.011 9.7677 184.687 9.4375 185.541 9.4375C186.419 9.4375 187.111 9.7677 187.635 10.4362C188.005 10.9033 188.198 11.4912 188.198 12.1919H183.584C183.6 12.7878 183.785 13.2791 184.156 13.6576C184.526 14.0362 184.977 14.2294 185.517 14.2294C185.774 14.2294 186.032 14.1811 186.282 14.0925C186.531 14.0039 186.741 13.8831 186.91 13.7301C187.095 13.5852 187.28 13.3435 187.482 13.0053ZM187.482 11.6201C187.393 11.2657 187.264 10.9838 187.095 10.7744C186.926 10.565 186.701 10.3959 186.427 10.267C186.153 10.1382 185.855 10.0737 185.557 10.0737C185.05 10.0737 184.623 10.2348 184.26 10.557C183.994 10.7905 183.793 11.1449 183.664 11.6201H187.482Z" fill="#1E70B8"/>
<path d="M188.746 9.57617H189.423L190.993 13.305L192.628 9.57617H192.749L194.4 13.305L196.002 9.57617H196.687L194.456 14.7144H194.335L192.692 11.0419L191.049 14.7144H190.929L188.746 9.57617Z" fill="#1E70B8"/>
<path d="M200.255 7.77148H204.233V8.44799H200.948V10.6225H204.201V11.299H200.948V14.0292H204.201V14.7057H200.255V7.77148Z" fill="#1E70B8"/>
<path d="M205.062 9.57613H205.739V10.3251C205.94 10.0271 206.15 9.80968 206.375 9.66472C206.601 9.51975 206.834 9.44727 207.076 9.44727C207.261 9.44727 207.454 9.50364 207.664 9.62445L207.318 10.1802C207.181 10.1238 207.06 10.0916 206.971 10.0916C206.754 10.0916 206.536 10.1802 206.335 10.3654C206.134 10.5426 205.973 10.8244 205.868 11.211C205.787 11.501 205.747 12.0969 205.747 12.9828V14.7224H205.071V9.57613H205.062Z" fill="#1E70B8"/>
<path d="M213.334 9.57441V14.7127H212.682V13.8268C212.408 14.165 212.094 14.4147 211.747 14.5838C211.401 14.7529 211.031 14.8415 210.62 14.8415C209.895 14.8415 209.275 14.5758 208.759 14.0523C208.244 13.5288 207.986 12.8845 207.986 12.1274C207.986 11.3865 208.244 10.7583 208.768 10.2268C209.283 9.70327 209.911 9.4375 210.636 9.4375C211.055 9.4375 211.441 9.52609 211.78 9.70327C212.118 9.88045 212.424 10.1543 212.682 10.5086V9.56636H213.334V9.57441ZM210.692 10.0818C210.33 10.0818 209.984 10.1704 209.678 10.3556C209.364 10.5328 209.122 10.7905 208.937 11.1207C208.751 11.4509 208.663 11.7892 208.663 12.1596C208.663 12.5221 208.759 12.8684 208.945 13.1986C209.13 13.5288 209.38 13.7865 209.694 13.9717C210.008 14.157 210.338 14.2456 210.7 14.2456C211.063 14.2456 211.401 14.157 211.731 13.9717C212.053 13.7865 212.303 13.5449 212.48 13.2308C212.657 12.9167 212.746 12.5704 212.746 12.1758C212.746 11.5798 212.553 11.0885 212.158 10.6858C211.747 10.2831 211.264 10.0818 210.692 10.0818Z" fill="#1E70B8"/>
<path d="M217.603 7.77148H218.295V14.0453H220.961V14.7138H217.603V7.77148Z" fill="#1E70B8"/>
<path d="M222.176 7.46484C222.329 7.46484 222.458 7.52122 222.563 7.62592C222.668 7.73062 222.724 7.85947 222.724 8.01249C222.724 8.15746 222.668 8.28632 222.563 8.39102C222.458 8.49572 222.329 8.55209 222.176 8.55209C222.031 8.55209 221.902 8.49572 221.798 8.39102C221.693 8.28632 221.637 8.15746 221.637 8.01249C221.637 7.85947 221.693 7.73062 221.798 7.62592C221.902 7.52122 222.031 7.46484 222.176 7.46484ZM221.854 9.57491H222.515V14.7132H221.854V9.57491Z" fill="#1E70B8"/>
<path d="M225.994 7.59394V8.23824C225.752 8.13354 225.543 8.08522 225.374 8.08522C225.245 8.08522 225.14 8.10938 225.052 8.16576C224.963 8.21408 224.915 8.27851 224.891 8.34294C224.866 8.40737 224.858 8.5926 224.858 8.88253V9.57515H225.93V10.147H224.858V14.7134H224.198V10.147H223.521V9.57515H224.198V8.76978C224.198 8.39931 224.23 8.14159 224.303 7.98052C224.375 7.81945 224.488 7.69864 224.649 7.602C224.81 7.50535 225.003 7.45703 225.237 7.45703C225.446 7.46508 225.696 7.50535 225.994 7.59394Z" fill="#1E70B8"/>
<path d="M231.238 13.0053L231.793 13.2952C231.608 13.6576 231.399 13.9395 231.157 14.165C230.915 14.3825 230.65 14.5516 230.352 14.6643C230.054 14.7771 229.715 14.8335 229.337 14.8335C228.499 14.8335 227.847 14.5596 227.372 14.012C226.897 13.4643 226.663 12.8442 226.663 12.1516C226.663 11.4992 226.864 10.9194 227.259 10.412C227.766 9.7677 228.443 9.4375 229.297 9.4375C230.174 9.4375 230.867 9.7677 231.391 10.4362C231.761 10.9033 231.954 11.4912 231.954 12.1919H227.34C227.356 12.7878 227.541 13.2791 227.911 13.6576C228.282 14.0362 228.733 14.2294 229.272 14.2294C229.53 14.2294 229.788 14.1811 230.038 14.0925C230.287 14.0039 230.497 13.8831 230.666 13.7301C230.851 13.5852 231.036 13.3435 231.238 13.0053ZM231.238 11.6201C231.149 11.2657 231.02 10.9838 230.851 10.7744C230.682 10.565 230.464 10.3959 230.183 10.267C229.909 10.1382 229.611 10.0737 229.313 10.0737C228.805 10.0737 228.379 10.2348 228.016 10.557C227.75 10.7905 227.549 11.1449 227.42 11.6201H231.238Z" fill="#1E70B8"/>
<path d="M235.876 7.77148H236.569V14.7138H235.876V7.77148Z" fill="#1E70B8"/>
<path d="M238.051 9.57441H238.711V10.4925C238.977 10.1382 239.267 9.88045 239.589 9.70327C239.911 9.52609 240.258 9.4375 240.636 9.4375C241.023 9.4375 241.361 9.53414 241.659 9.72743C241.957 9.92072 242.174 10.1865 242.319 10.5167C242.464 10.8469 242.529 11.3623 242.529 12.063V14.7046H241.868V12.2563C241.868 11.6684 241.844 11.2737 241.796 11.0724C241.715 10.7341 241.57 10.4764 241.353 10.3073C241.135 10.1382 240.853 10.0496 240.507 10.0496C240.104 10.0496 239.75 10.1784 239.436 10.4442C239.122 10.71 238.913 11.0321 238.808 11.4268C238.743 11.6845 238.711 12.1435 238.711 12.8201V14.7046H238.051V9.57441Z" fill="#1E70B8"/>
<path d="M246.523 10.1387L246.096 10.5736C245.741 10.2272 245.395 10.0581 245.057 10.0581C244.839 10.0581 244.662 10.1306 244.509 10.2675C244.356 10.4125 244.284 10.5736 244.284 10.7668C244.284 10.936 244.348 11.089 244.469 11.242C244.598 11.395 244.863 11.5803 245.266 11.7816C245.757 12.0393 246.088 12.2809 246.265 12.5145C246.442 12.7561 246.523 13.0219 246.523 13.3199C246.523 13.7387 246.378 14.1011 246.08 14.391C245.782 14.6809 245.411 14.8259 244.968 14.8259C244.67 14.8259 244.388 14.7615 244.123 14.6326C243.857 14.5038 243.631 14.3266 243.454 14.1011L243.873 13.6259C244.211 14.0044 244.566 14.1977 244.944 14.1977C245.21 14.1977 245.435 14.1091 245.621 13.94C245.806 13.7709 245.902 13.5695 245.902 13.344C245.902 13.1588 245.838 12.9897 245.717 12.8366C245.596 12.6917 245.315 12.5064 244.888 12.289C244.429 12.0474 244.106 11.8138 243.945 11.5803C243.776 11.3467 243.696 11.0809 243.696 10.7829C243.696 10.3964 243.825 10.0662 244.098 9.80845C244.364 9.55073 244.702 9.42188 245.105 9.42188C245.564 9.44604 246.039 9.67154 246.523 10.1387Z" fill="#1E70B8"/>
<path d="M247.603 9.57617H248.263V11.9762C248.263 12.5641 248.295 12.9668 248.36 13.1842C248.456 13.4983 248.634 13.748 248.899 13.9332C249.165 14.1185 249.479 14.207 249.85 14.207C250.22 14.207 250.534 14.1185 250.784 13.9413C251.042 13.7641 251.219 13.5305 251.316 13.2406C251.38 13.0393 251.412 12.6205 251.412 11.9842V9.58422H252.089V12.105C252.089 12.8138 252.008 13.3453 251.839 13.7077C251.678 14.0701 251.428 14.344 251.09 14.5534C250.76 14.7547 250.341 14.8594 249.842 14.8594C249.342 14.8594 248.924 14.7547 248.593 14.5534C248.255 14.352 248.005 14.0701 247.844 13.7077C247.683 13.3453 247.595 12.7976 247.595 12.0648V9.57617H247.603Z" fill="#1E70B8"/>
<path d="M253.312 9.57613H253.989V10.3251C254.19 10.0271 254.4 9.80968 254.625 9.66472C254.851 9.51975 255.084 9.44727 255.326 9.44727C255.511 9.44727 255.704 9.50364 255.914 9.62445L255.568 10.1802C255.431 10.1238 255.31 10.0916 255.221 10.0916C255.004 10.0916 254.786 10.1802 254.585 10.3654C254.384 10.5426 254.223 10.8244 254.118 11.211C254.037 11.501 253.997 12.0969 253.997 12.9828V14.7224H253.321V9.57613H253.312Z" fill="#1E70B8"/>
<path d="M261.575 9.57441V14.7127H260.923V13.8268C260.649 14.165 260.335 14.4147 259.989 14.5838C259.642 14.7529 259.272 14.8415 258.861 14.8415C258.136 14.8415 257.516 14.5758 257.001 14.0523C256.485 13.5288 256.228 12.8845 256.228 12.1274C256.228 11.3865 256.485 10.7583 257.009 10.2268C257.532 9.69522 258.152 9.4375 258.877 9.4375C259.296 9.4375 259.683 9.52609 260.021 9.70327C260.359 9.88045 260.665 10.1543 260.923 10.5086V9.56636H261.575V9.57441ZM258.934 10.0818C258.563 10.0818 258.225 10.1704 257.919 10.3556C257.605 10.5328 257.363 10.7905 257.178 11.1207C256.993 11.4509 256.904 11.7892 256.904 12.1596C256.904 12.5221 257.001 12.8684 257.186 13.1986C257.371 13.5288 257.621 13.7865 257.935 13.9717C258.249 14.157 258.579 14.2456 258.942 14.2456C259.304 14.2456 259.642 14.157 259.973 13.9717C260.295 13.7865 260.544 13.5449 260.722 13.2308C260.899 12.9167 260.979 12.5704 260.979 12.1758C260.979 11.5798 260.786 11.0885 260.391 10.6858C259.989 10.2831 259.505 10.0818 258.934 10.0818Z" fill="#1E70B8"/>
<path d="M263.058 9.57441H263.718V10.4925C263.984 10.1382 264.274 9.88045 264.596 9.70327C264.918 9.52609 265.264 9.4375 265.643 9.4375C266.029 9.4375 266.368 9.53414 266.666 9.72743C266.964 9.92072 267.181 10.1865 267.326 10.5167C267.471 10.8469 267.535 11.3623 267.535 12.063V14.7046H266.875V12.2563C266.875 11.6684 266.851 11.2737 266.803 11.0724C266.722 10.7341 266.577 10.4764 266.36 10.3073C266.142 10.1382 265.86 10.0496 265.514 10.0496C265.111 10.0496 264.757 10.1784 264.443 10.4442C264.129 10.71 263.919 11.0321 263.815 11.4268C263.75 11.6845 263.718 12.1435 263.718 12.8201V14.7046H263.058V9.57441Z" fill="#1E70B8"/>
<path d="M273.93 10.6456L273.407 10.9677C272.956 10.3637 272.336 10.0657 271.554 10.0657C270.926 10.0657 270.411 10.267 270 10.6697C269.589 11.0724 269.38 11.5637 269.38 12.1355C269.38 12.506 269.477 12.8603 269.662 13.1905C269.855 13.5207 270.113 13.7784 270.443 13.9556C270.773 14.1409 271.144 14.2294 271.554 14.2294C272.311 14.2294 272.923 13.9315 273.399 13.3274L273.922 13.6737C273.681 14.0442 273.35 14.3261 272.932 14.5355C272.521 14.7368 272.046 14.8415 271.522 14.8415C270.709 14.8415 270.04 14.5838 269.501 14.0684C268.969 13.5529 268.695 12.9247 268.695 12.1838C268.695 11.6845 268.824 11.2254 269.074 10.7986C269.324 10.3717 269.67 10.0415 270.105 9.79992C270.54 9.55831 271.031 9.4375 271.57 9.4375C271.909 9.4375 272.239 9.48582 272.553 9.59052C272.867 9.69522 273.141 9.83213 273.358 9.9932C273.576 10.1543 273.777 10.3878 273.93 10.6456Z" fill="#1E70B8"/>
<path d="M279.519 13.0053L280.075 13.2952C279.889 13.6576 279.68 13.9395 279.438 14.165C279.197 14.3825 278.931 14.5516 278.633 14.6643C278.335 14.7771 277.997 14.8335 277.618 14.8335C276.781 14.8335 276.128 14.5596 275.653 14.012C275.178 13.4643 274.944 12.8442 274.944 12.1516C274.944 11.4992 275.146 10.9194 275.54 10.412C276.048 9.7677 276.724 9.4375 277.578 9.4375C278.456 9.4375 279.148 9.7677 279.672 10.4362C280.042 10.9033 280.236 11.4912 280.236 12.1919H275.621C275.637 12.7878 275.822 13.2791 276.193 13.6576C276.563 14.0362 277.014 14.2294 277.554 14.2294C277.811 14.2294 278.069 14.1811 278.319 14.0925C278.568 14.0039 278.778 13.8831 278.947 13.7301C279.124 13.5852 279.317 13.3435 279.519 13.0053ZM279.519 11.6201C279.43 11.2657 279.301 10.9838 279.132 10.7744C278.963 10.565 278.746 10.3959 278.464 10.267C278.19 10.1382 277.892 10.0737 277.594 10.0737C277.087 10.0737 276.66 10.2348 276.297 10.557C276.032 10.7905 275.83 11.1449 275.701 11.6201H279.519Z" fill="#1E70B8"/>
<path d="M290.714 9.05928L290.166 9.47807C289.868 9.08344 289.506 8.78546 289.079 8.58411C288.66 8.38277 288.193 8.27807 287.685 8.27807C287.13 8.27807 286.622 8.41499 286.147 8.68076C285.672 8.94653 285.31 9.30089 285.052 9.7519C284.794 10.2029 284.665 10.7022 284.665 11.266C284.665 12.1116 284.955 12.8204 285.535 13.3841C286.115 13.9479 286.848 14.2298 287.734 14.2298C288.708 14.2298 289.522 13.8512 290.174 13.0861L290.722 13.5049C290.375 13.9479 289.94 14.2861 289.425 14.5277C288.91 14.7694 288.33 14.8902 287.693 14.8902C286.477 14.8902 285.519 14.4875 284.818 13.674C284.23 12.9895 283.94 12.168 283.94 11.2016C283.94 10.1868 284.295 9.33311 285.012 8.64049C285.728 7.94787 286.614 7.60156 287.685 7.60156C288.33 7.60156 288.918 7.73042 289.441 7.98814C289.965 8.24586 290.383 8.59217 290.714 9.05928Z" fill="#1E70B8"/>
<path d="M294.426 9.44727C295.215 9.44727 295.868 9.7372 296.391 10.309C296.866 10.8325 297.1 11.4526 297.1 12.1614C297.1 12.8781 296.85 13.5063 296.351 14.0379C295.852 14.5775 295.207 14.8432 294.426 14.8432C293.637 14.8432 292.992 14.5775 292.493 14.0379C291.994 13.4983 291.744 12.8781 291.744 12.1614C291.744 11.4526 291.978 10.8325 292.453 10.309C292.976 9.72915 293.637 9.44727 294.426 9.44727ZM294.426 10.0916C293.878 10.0916 293.403 10.2929 293.009 10.7036C292.614 11.1063 292.421 11.5976 292.421 12.1775C292.421 12.5479 292.509 12.8942 292.686 13.2164C292.864 13.5385 293.105 13.7882 293.411 13.9573C293.717 14.1345 294.056 14.2231 294.418 14.2231C294.78 14.2231 295.119 14.1345 295.425 13.9573C295.731 13.7802 295.972 13.5385 296.15 13.2164C296.327 12.8942 296.415 12.5479 296.415 12.1775C296.415 11.6057 296.214 11.1144 295.819 10.7036C295.441 10.2929 294.974 10.0916 294.426 10.0916Z" fill="#1E70B8"/>
<path d="M298.316 9.57465H298.977V10.4606C299.202 10.1304 299.444 9.8968 299.686 9.74378C300.016 9.54244 300.37 9.43774 300.741 9.43774C300.99 9.43774 301.224 9.48606 301.449 9.58271C301.675 9.67935 301.852 9.80821 301.997 9.96928C302.142 10.1304 302.263 10.3639 302.367 10.6619C302.585 10.2592 302.859 9.95318 303.189 9.74378C303.519 9.53439 303.873 9.42969 304.252 9.42969C304.606 9.42969 304.92 9.51828 305.194 9.69546C305.468 9.87264 305.669 10.1223 305.798 10.4445C305.927 10.7666 305.992 11.2498 305.992 11.8861V14.6887H305.315V11.8861C305.315 11.3384 305.275 10.9599 305.194 10.7505C305.114 10.5411 304.985 10.38 304.792 10.2512C304.598 10.1223 304.373 10.0659 304.115 10.0659C303.793 10.0659 303.503 10.1626 303.237 10.3478C302.971 10.533 302.778 10.7908 302.657 11.1049C302.537 11.4189 302.472 11.9424 302.472 12.6834V14.6968H301.812V12.0794C301.812 11.4592 301.771 11.0404 301.699 10.8149C301.618 10.5894 301.49 10.4122 301.296 10.2834C301.103 10.1545 300.877 10.082 300.612 10.082C300.306 10.082 300.024 10.1706 299.758 10.3559C299.492 10.5411 299.299 10.7908 299.17 11.0968C299.041 11.4028 298.977 11.8861 298.977 12.5304V14.7049H298.316V9.57465Z" fill="#1E70B8"/>
<path d="M307.393 9.57613H308.053V10.5184C308.311 10.156 308.617 9.89022 308.955 9.71304C309.293 9.53586 309.672 9.44727 310.091 9.44727C310.815 9.44727 311.444 9.71304 311.959 10.2365C312.474 10.76 312.74 11.3963 312.74 12.1372C312.74 12.8942 312.483 13.5305 311.967 14.062C311.452 14.5936 310.832 14.8513 310.107 14.8513C309.696 14.8513 309.325 14.7627 308.979 14.5936C308.633 14.4244 308.327 14.1667 308.053 13.8365V16.5989H307.393V9.57613ZM310.034 10.0835C309.462 10.0835 308.979 10.2849 308.593 10.6795C308.206 11.0822 308.005 11.5734 308.005 12.1694C308.005 12.556 308.093 12.9104 308.262 13.2244C308.44 13.5385 308.689 13.7802 309.011 13.9654C309.334 14.1506 309.68 14.2392 310.042 14.2392C310.397 14.2392 310.727 14.1506 311.041 13.9654C311.355 13.7802 311.605 13.5224 311.79 13.1922C311.975 12.862 312.064 12.5157 312.064 12.1533C312.064 11.7909 311.975 11.4446 311.79 11.1144C311.605 10.7842 311.363 10.5345 311.049 10.3493C310.735 10.1721 310.397 10.0835 310.034 10.0835Z" fill="#1E70B8"/>
<path d="M319.079 9.57441V14.7127H318.427V13.8268C318.153 14.165 317.839 14.4147 317.493 14.5838C317.146 14.7529 316.776 14.8415 316.365 14.8415C315.64 14.8415 315.02 14.5758 314.505 14.0523C313.989 13.5288 313.731 12.8845 313.731 12.1274C313.731 11.3865 313.989 10.7583 314.513 10.2268C315.036 9.69522 315.656 9.4375 316.381 9.4375C316.8 9.4375 317.186 9.52609 317.525 9.70327C317.863 9.88045 318.169 10.1543 318.427 10.5086V9.56636H319.079V9.57441ZM316.437 10.0818C316.067 10.0818 315.729 10.1704 315.423 10.3556C315.109 10.5328 314.867 10.7905 314.682 11.1207C314.497 11.4509 314.408 11.7892 314.408 12.1596C314.408 12.5221 314.505 12.8684 314.69 13.1986C314.875 13.5288 315.125 13.7865 315.439 13.9717C315.753 14.157 316.083 14.2456 316.446 14.2456C316.808 14.2456 317.146 14.157 317.476 13.9717C317.799 13.7865 318.048 13.5449 318.225 13.2308C318.403 12.9167 318.483 12.5704 318.483 12.1758C318.483 11.5798 318.29 11.0885 317.895 10.6858C317.493 10.2831 317.009 10.0818 316.437 10.0818Z" fill="#1E70B8"/>
<path d="M320.568 9.57441H321.229V10.4925C321.495 10.1382 321.784 9.88045 322.107 9.70327C322.429 9.52609 322.775 9.4375 323.154 9.4375C323.54 9.4375 323.878 9.53414 324.176 9.72743C324.474 9.92072 324.692 10.1865 324.837 10.5167C324.982 10.8469 325.046 11.3623 325.046 12.063V14.7046H324.386V12.2563C324.386 11.6684 324.362 11.2737 324.313 11.0724C324.233 10.7341 324.088 10.4764 323.87 10.3073C323.653 10.1382 323.371 10.0496 323.025 10.0496C322.622 10.0496 322.268 10.1784 321.954 10.4442C321.64 10.71 321.43 11.0321 321.325 11.4268C321.261 11.6845 321.229 12.1435 321.229 12.8201V14.7046H320.568V9.57441Z" fill="#1E70B8"/>
<path d="M325.9 9.57617H326.601L328.365 13.5305L330.08 9.57617H330.781L327.721 16.5909H327.02L328.01 14.3279L325.9 9.57617Z" fill="#1E70B8"/>
<path d="M176.134 27.6005V20.6582H176.287L180.902 25.9817V20.6582H181.586V27.6005H181.433L176.851 22.3414V27.6005H176.134Z" fill="#1E70B8"/>
<path d="M187.482 25.894L188.037 26.1839C187.852 26.5463 187.643 26.8282 187.401 27.0537C187.16 27.2711 186.894 27.4403 186.596 27.553C186.298 27.6658 185.96 27.7221 185.581 27.7221C184.743 27.7221 184.091 27.4483 183.616 26.9007C183.141 26.353 182.907 25.7329 182.907 25.0403C182.907 24.3879 183.109 23.8081 183.503 23.3007C184.011 22.6564 184.687 22.3262 185.541 22.3262C186.419 22.3262 187.111 22.6564 187.635 23.3248C188.005 23.7919 188.198 24.3799 188.198 25.0805H183.584C183.6 25.6765 183.785 26.1678 184.156 26.5463C184.526 26.9248 184.977 27.1181 185.517 27.1181C185.774 27.1181 186.032 27.0698 186.282 26.9812C186.531 26.8926 186.741 26.7718 186.91 26.6188C187.095 26.4738 187.28 26.2322 187.482 25.894ZM187.482 24.5168C187.393 24.1624 187.264 23.8805 187.095 23.6711C186.926 23.4617 186.701 23.2926 186.427 23.1638C186.153 23.0349 185.855 22.9705 185.557 22.9705C185.05 22.9705 184.623 23.1315 184.26 23.4537C183.994 23.6872 183.793 24.0416 183.664 24.5168H187.482Z" fill="#1E70B8"/>
<path d="M188.746 22.4609H189.423L190.993 26.1898L192.628 22.4609H192.749L194.4 26.1898L196.002 22.4609H196.687L194.456 27.5992H194.335L192.692 23.9267L191.049 27.5992H190.929L188.746 22.4609Z" fill="#1E70B8"/>
<path d="M200.255 20.6582H204.233V21.3347H200.948V23.5092H204.201V24.1857H200.948V26.9159H204.201V27.5924H200.255V20.6582Z" fill="#1E70B8"/>
<path d="M205.062 22.4628H205.739V23.2118C205.94 22.9139 206.15 22.6964 206.375 22.5514C206.601 22.4065 206.834 22.334 207.076 22.334C207.261 22.334 207.454 22.3904 207.664 22.5112L207.318 23.0669C207.181 23.0105 207.06 22.9783 206.971 22.9783C206.754 22.9783 206.536 23.0669 206.335 23.2521C206.134 23.4293 205.973 23.7112 205.868 24.0977C205.787 24.3877 205.747 24.9836 205.747 25.8696V27.6092H205.071V22.4628H205.062Z" fill="#1E70B8"/>
<path d="M213.334 22.4631V27.6013H212.682V26.7154C212.408 27.0537 212.094 27.3034 211.747 27.4725C211.401 27.6416 211.031 27.7302 210.62 27.7302C209.895 27.7302 209.275 27.4644 208.759 26.9409C208.244 26.4174 207.986 25.7732 207.986 25.0161C207.986 24.2752 208.244 23.647 208.768 23.1154C209.283 22.5919 209.911 22.3262 210.636 22.3262C211.055 22.3262 211.441 22.4148 211.78 22.5919C212.118 22.7691 212.424 23.043 212.682 23.3973V22.455H213.334V22.4631ZM210.692 22.9705C210.33 22.9705 209.984 23.0591 209.678 23.2443C209.364 23.4215 209.122 23.6792 208.937 24.0094C208.751 24.3396 208.663 24.6779 208.663 25.0483C208.663 25.4107 208.759 25.757 208.945 26.0872C209.13 26.4174 209.38 26.6752 209.694 26.8604C210.008 27.0456 210.338 27.1342 210.7 27.1342C211.063 27.1342 211.401 27.0456 211.731 26.8604C212.053 26.6752 212.303 26.4336 212.48 26.1195C212.657 25.8054 212.746 25.4591 212.746 25.0644C212.746 24.4685 212.553 23.9772 212.158 23.5745C211.747 23.1718 211.264 22.9705 210.692 22.9705Z" fill="#1E70B8"/>
<path d="M217.603 20.6582H218.295V26.932H220.961V27.6005H217.603V20.6582Z" fill="#1E70B8"/>
<path d="M222.176 20.3516C222.329 20.3516 222.458 20.4079 222.563 20.5126C222.668 20.6173 222.724 20.7462 222.724 20.8992C222.724 21.0442 222.668 21.173 222.563 21.2777C222.458 21.3824 222.329 21.4388 222.176 21.4388C222.031 21.4388 221.902 21.3824 221.798 21.2777C221.693 21.173 221.637 21.0442 221.637 20.8992C221.637 20.7462 221.693 20.6173 221.798 20.5126C221.902 20.4079 222.031 20.3516 222.176 20.3516ZM221.854 22.4616H222.515V27.5999H221.854V22.4616Z" fill="#1E70B8"/>
<path d="M225.994 20.4807V21.125C225.752 21.0203 225.543 20.9719 225.374 20.9719C225.245 20.9719 225.14 20.9961 225.052 21.0525C224.963 21.1008 224.915 21.1652 224.891 21.2297C224.866 21.2941 224.858 21.4793 224.858 21.7693V22.4619H225.93V23.0337H224.858V27.6001H224.198V23.0337H223.521V22.4619H224.198V21.6565C224.198 21.286 224.23 21.0283 224.303 20.8672C224.375 20.7062 224.488 20.5854 224.649 20.4887C224.81 20.3921 225.003 20.3438 225.237 20.3438C225.446 20.3518 225.696 20.3921 225.994 20.4807Z" fill="#1E70B8"/>
<path d="M231.238 25.894L231.793 26.1839C231.608 26.5463 231.399 26.8282 231.157 27.0537C230.915 27.2711 230.65 27.4403 230.352 27.553C230.054 27.6658 229.715 27.7221 229.337 27.7221C228.499 27.7221 227.847 27.4483 227.372 26.9007C226.897 26.353 226.663 25.7329 226.663 25.0403C226.663 24.3879 226.864 23.8081 227.259 23.3007C227.766 22.6564 228.443 22.3262 229.297 22.3262C230.174 22.3262 230.867 22.6564 231.391 23.3248C231.761 23.7919 231.954 24.3799 231.954 25.0805H227.34C227.356 25.6765 227.541 26.1678 227.911 26.5463C228.282 26.9248 228.733 27.1181 229.272 27.1181C229.53 27.1181 229.788 27.0698 230.038 26.9812C230.287 26.8926 230.497 26.7718 230.666 26.6188C230.851 26.4738 231.036 26.2322 231.238 25.894ZM231.238 24.5168C231.149 24.1624 231.02 23.8805 230.851 23.6711C230.682 23.4617 230.464 23.2926 230.183 23.1638C229.909 23.0349 229.611 22.9705 229.313 22.9705C228.805 22.9705 228.379 23.1315 228.016 23.4537C227.75 23.6872 227.549 24.0416 227.42 24.5168H231.238Z" fill="#1E70B8"/>
<path d="M235.876 20.6582H236.569V27.6005H235.876V20.6582Z" fill="#1E70B8"/>
<path d="M238.051 22.4631H238.711V23.3812C238.977 23.0268 239.267 22.7691 239.589 22.5919C239.911 22.4148 240.258 22.3262 240.636 22.3262C241.023 22.3262 241.361 22.4228 241.659 22.6161C241.957 22.8094 242.174 23.0752 242.319 23.4054C242.464 23.7356 242.529 24.251 242.529 24.9517V27.5933H241.868V25.145C241.868 24.557 241.844 24.1624 241.796 23.9611C241.715 23.6228 241.57 23.3651 241.353 23.196C241.135 23.0268 240.853 22.9383 240.507 22.9383C240.104 22.9383 239.75 23.0671 239.436 23.3329C239.122 23.5987 238.913 23.9208 238.808 24.3154C238.743 24.5732 238.711 25.0322 238.711 25.7087V27.5933H238.051V22.4631Z" fill="#1E70B8"/>
<path d="M246.524 23.0254L246.097 23.4603C245.742 23.114 245.396 22.9448 245.058 22.9448C244.84 22.9448 244.663 23.0173 244.51 23.1542C244.357 23.2992 244.285 23.4603 244.285 23.6536C244.285 23.8227 244.349 23.9757 244.47 24.1287C244.599 24.2817 244.864 24.467 245.267 24.6683C245.758 24.926 246.089 25.1677 246.266 25.4012C246.443 25.6428 246.524 25.9086 246.524 26.2066C246.524 26.6254 246.379 26.9878 246.081 27.2777C245.783 27.5677 245.412 27.7126 244.969 27.7126C244.671 27.7126 244.389 27.6482 244.124 27.5193C243.858 27.3905 243.632 27.2133 243.455 26.9878L243.874 26.5126C244.212 26.8911 244.566 27.0844 244.945 27.0844C245.211 27.0844 245.436 26.9958 245.622 26.8267C245.807 26.6576 245.903 26.4562 245.903 26.2307C245.903 26.0455 245.839 25.8764 245.718 25.7234C245.597 25.5784 245.315 25.3932 244.889 25.1757C244.43 24.9341 244.107 24.7005 243.946 24.467C243.777 24.2334 243.697 23.9677 243.697 23.6697C243.697 23.2831 243.826 22.9529 244.099 22.6952C244.365 22.4375 244.703 22.3086 245.106 22.3086C245.565 22.3328 246.04 22.5663 246.524 23.0254Z" fill="#1E70B8"/>
<path d="M247.602 22.4609H248.262V24.8609C248.262 25.4489 248.294 25.8515 248.359 26.069C248.456 26.3831 248.633 26.6327 248.898 26.818C249.164 27.0032 249.478 27.0918 249.849 27.0918C250.219 27.0918 250.533 27.0032 250.783 26.826C251.041 26.6489 251.218 26.4153 251.315 26.1254C251.379 25.924 251.411 25.5052 251.411 24.869V22.469H252.088V24.9898C252.088 25.6985 252.007 26.2301 251.838 26.5925C251.677 26.9549 251.427 27.2287 251.089 27.4381C250.759 27.6395 250.34 27.7442 249.841 27.7442C249.341 27.7442 248.923 27.6395 248.592 27.4381C248.254 27.2368 248.004 26.9549 247.843 26.5925C247.682 26.2301 247.594 25.6824 247.594 24.9495V22.4609H247.602Z" fill="#1E70B8"/>
<path d="M253.312 22.4628H253.989V23.2118C254.19 22.9139 254.4 22.6964 254.625 22.5514C254.851 22.4065 255.084 22.334 255.326 22.334C255.511 22.334 255.704 22.3904 255.914 22.5112L255.568 23.0669C255.431 23.0105 255.31 22.9783 255.221 22.9783C255.004 22.9783 254.786 23.0669 254.585 23.2521C254.384 23.4293 254.223 23.7112 254.118 24.0977C254.037 24.3877 253.997 24.9836 253.997 25.8696V27.6092H253.321V22.4628H253.312Z" fill="#1E70B8"/>
<path d="M261.575 22.4631V27.6013H260.923V26.7154C260.649 27.0537 260.335 27.3034 259.989 27.4725C259.642 27.6416 259.272 27.7302 258.861 27.7302C258.136 27.7302 257.516 27.4644 257.001 26.9409C256.485 26.4174 256.228 25.7732 256.228 25.0161C256.228 24.2752 256.485 23.647 257.009 23.1154C257.532 22.5839 258.152 22.3262 258.877 22.3262C259.296 22.3262 259.683 22.4148 260.021 22.5919C260.359 22.7691 260.665 23.043 260.923 23.3973V22.455H261.575V22.4631ZM258.934 22.9705C258.563 22.9705 258.225 23.0591 257.919 23.2443C257.605 23.4215 257.363 23.6792 257.178 24.0094C256.993 24.3396 256.904 24.6779 256.904 25.0483C256.904 25.4107 257.001 25.757 257.186 26.0872C257.371 26.4174 257.621 26.6752 257.935 26.8604C258.249 27.0456 258.579 27.1342 258.942 27.1342C259.304 27.1342 259.642 27.0456 259.973 26.8604C260.295 26.6752 260.544 26.4336 260.722 26.1195C260.899 25.8054 260.979 25.4591 260.979 25.0644C260.979 24.4685 260.786 23.9772 260.391 23.5745C259.989 23.1718 259.505 22.9705 258.934 22.9705Z" fill="#1E70B8"/>
<path d="M263.058 22.4631H263.718V23.3812C263.984 23.0268 264.274 22.7691 264.596 22.5919C264.918 22.4148 265.264 22.3262 265.643 22.3262C266.029 22.3262 266.368 22.4228 266.666 22.6161C266.964 22.8094 267.181 23.0752 267.326 23.4054C267.471 23.7356 267.535 24.251 267.535 24.9517V27.5933H266.875V25.145C266.875 24.557 266.851 24.1624 266.803 23.9611C266.722 23.6228 266.577 23.3651 266.36 23.196C266.142 23.0268 265.86 22.9383 265.514 22.9383C265.111 22.9383 264.757 23.0671 264.443 23.3329C264.129 23.5987 263.919 23.9208 263.815 24.3154C263.75 24.5732 263.718 25.0322 263.718 25.7087V27.5933H263.058V22.4631Z" fill="#1E70B8"/>
<path d="M273.93 23.5342L273.407 23.8564C272.956 23.2523 272.336 22.9544 271.554 22.9544C270.926 22.9544 270.411 23.1557 270 23.5584C269.589 23.9611 269.38 24.4523 269.38 25.0242C269.38 25.3946 269.477 25.749 269.662 26.0792C269.855 26.4094 270.113 26.6671 270.443 26.8443C270.773 27.0295 271.144 27.1181 271.554 27.1181C272.311 27.1181 272.923 26.8201 273.399 26.2161L273.922 26.5624C273.681 26.9329 273.35 27.2148 272.932 27.4242C272.521 27.6255 272.046 27.7302 271.522 27.7302C270.709 27.7302 270.04 27.4725 269.501 26.957C268.969 26.4416 268.695 25.8134 268.695 25.0725C268.695 24.5732 268.824 24.1141 269.074 23.6872C269.324 23.2604 269.67 22.9302 270.105 22.6886C270.54 22.447 271.031 22.3262 271.57 22.3262C271.909 22.3262 272.239 22.3745 272.553 22.4792C272.867 22.5839 273.141 22.7208 273.358 22.8819C273.576 23.043 273.777 23.2765 273.93 23.5342Z" fill="#1E70B8"/>
<path d="M279.519 25.894L280.075 26.1839C279.889 26.5463 279.68 26.8282 279.438 27.0537C279.197 27.2711 278.931 27.4403 278.633 27.553C278.335 27.6658 277.997 27.7221 277.618 27.7221C276.781 27.7221 276.128 27.4483 275.653 26.9007C275.178 26.353 274.944 25.7329 274.944 25.0403C274.944 24.3879 275.146 23.8081 275.54 23.3007C276.048 22.6564 276.724 22.3262 277.578 22.3262C278.456 22.3262 279.148 22.6564 279.672 23.3248C280.042 23.7919 280.236 24.3799 280.236 25.0805H275.621C275.637 25.6765 275.822 26.1678 276.193 26.5463C276.563 26.9248 277.014 27.1181 277.554 27.1181C277.811 27.1181 278.069 27.0698 278.319 26.9812C278.568 26.8926 278.778 26.7718 278.947 26.6188C279.124 26.4738 279.317 26.2322 279.519 25.894ZM279.519 24.5168C279.43 24.1624 279.301 23.8805 279.132 23.6711C278.963 23.4617 278.746 23.2926 278.464 23.1638C278.19 23.0349 277.892 22.9705 277.594 22.9705C277.087 22.9705 276.66 23.1315 276.297 23.4537C276.032 23.6872 275.83 24.0416 275.701 24.5168H279.519Z" fill="#1E70B8"/>
<path d="M290.714 21.946L290.166 22.3648C289.868 21.9702 289.506 21.6722 289.079 21.4708C288.66 21.2695 288.193 21.1648 287.685 21.1648C287.13 21.1648 286.622 21.3017 286.147 21.5675C285.672 21.8332 285.31 22.1876 285.052 22.6386C284.794 23.0896 284.665 23.589 284.665 24.1527C284.665 24.9983 284.955 25.7071 285.535 26.2708C286.115 26.8346 286.848 27.1165 287.734 27.1165C288.708 27.1165 289.522 26.7379 290.174 25.9728L290.722 26.3916C290.375 26.8346 289.94 27.1728 289.425 27.4145C288.91 27.6561 288.33 27.7769 287.693 27.7769C286.477 27.7769 285.519 27.3742 284.818 26.5608C284.23 25.8762 283.94 25.0547 283.94 24.0883C283.94 23.0735 284.295 22.2198 285.012 21.5272C285.728 20.8346 286.614 20.4883 287.685 20.4883C288.33 20.4883 288.918 20.6171 289.441 20.8749C289.965 21.1326 290.383 21.4789 290.714 21.946Z" fill="#1E70B8"/>
<path d="M294.426 22.334C295.215 22.334 295.868 22.6239 296.391 23.1957C296.866 23.7192 297.1 24.3394 297.1 25.0481C297.1 25.7649 296.85 26.393 296.351 26.9246C295.852 27.4642 295.207 27.73 294.426 27.73C293.637 27.73 292.992 27.4642 292.493 26.9246C291.994 26.385 291.744 25.7649 291.744 25.0481C291.744 24.3394 291.978 23.7192 292.453 23.1957C292.976 22.6239 293.637 22.334 294.426 22.334ZM294.426 22.9783C293.878 22.9783 293.403 23.1796 293.009 23.5904C292.614 23.993 292.421 24.4843 292.421 25.0642C292.421 25.4347 292.509 25.781 292.686 26.1031C292.864 26.4253 293.105 26.6749 293.411 26.8441C293.717 27.0212 294.056 27.1098 294.418 27.1098C294.78 27.1098 295.119 27.0212 295.425 26.8441C295.731 26.6669 295.972 26.4253 296.15 26.1031C296.327 25.781 296.415 25.4347 296.415 25.0642C296.415 24.4924 296.214 24.0011 295.819 23.5904C295.441 23.1796 294.974 22.9783 294.426 22.9783Z" fill="#1E70B8"/>
<path d="M298.316 22.4614H298.977V23.3473C299.202 23.0171 299.444 22.7835 299.686 22.6305C300.016 22.4292 300.37 22.3245 300.741 22.3245C300.99 22.3245 301.224 22.3728 301.449 22.4694C301.675 22.5661 301.852 22.6949 301.997 22.856C302.142 23.0171 302.263 23.2506 302.367 23.5486C302.585 23.1459 302.859 22.8399 303.189 22.6305C303.519 22.4211 303.873 22.3164 304.252 22.3164C304.606 22.3164 304.92 22.405 305.194 22.5822C305.468 22.7594 305.669 23.009 305.798 23.3312C305.927 23.6533 305.992 24.1365 305.992 24.7728V27.5755H305.315V24.7728C305.315 24.2251 305.275 23.8466 305.194 23.6372C305.114 23.4278 304.985 23.2667 304.792 23.1379C304.598 23.009 304.373 22.9526 304.115 22.9526C303.793 22.9526 303.503 23.0493 303.237 23.2345C302.971 23.4198 302.778 23.6775 302.657 23.9916C302.537 24.3057 302.472 24.8292 302.472 25.5701V27.5835H301.812V24.9661C301.812 24.3459 301.771 23.9271 301.699 23.7016C301.618 23.4761 301.49 23.299 301.296 23.1701C301.103 23.0412 300.877 22.9688 300.612 22.9688C300.306 22.9688 300.024 23.0573 299.758 23.2426C299.492 23.4278 299.299 23.6775 299.17 23.9835C299.041 24.2896 298.977 24.7728 298.977 25.4171V27.5916H298.316V22.4614Z" fill="#1E70B8"/>
<path d="M307.393 22.4628H308.053V23.4051C308.311 23.0427 308.617 22.7769 308.955 22.5998C309.293 22.4226 309.672 22.334 310.091 22.334C310.815 22.334 311.444 22.5998 311.959 23.1232C312.474 23.6467 312.74 24.283 312.74 25.0239C312.74 25.781 312.483 26.4172 311.967 26.9487C311.452 27.4803 310.832 27.738 310.107 27.738C309.696 27.738 309.325 27.6494 308.979 27.4803C308.633 27.3112 308.327 27.0534 308.053 26.7232V29.4857H307.393V22.4628ZM310.034 22.9702C309.462 22.9702 308.979 23.1716 308.593 23.5662C308.206 23.9689 308.005 24.4602 308.005 25.0561C308.005 25.4427 308.093 25.7971 308.262 26.1112C308.44 26.4253 308.689 26.6669 309.011 26.8521C309.334 27.0373 309.68 27.1259 310.042 27.1259C310.397 27.1259 310.727 27.0373 311.041 26.8521C311.355 26.6669 311.605 26.4092 311.79 26.079C311.975 25.7488 312.064 25.4024 312.064 25.04C312.064 24.6776 311.975 24.3313 311.79 24.0011C311.605 23.6709 311.363 23.4212 311.049 23.236C310.735 23.0588 310.397 22.9702 310.034 22.9702Z" fill="#1E70B8"/>
<path d="M319.079 22.4631V27.6013H318.427V26.7154C318.153 27.0537 317.839 27.3034 317.493 27.4725C317.146 27.6416 316.776 27.7302 316.365 27.7302C315.64 27.7302 315.02 27.4644 314.505 26.9409C313.989 26.4174 313.731 25.7732 313.731 25.0161C313.731 24.2752 313.989 23.647 314.513 23.1154C315.036 22.5839 315.656 22.3262 316.381 22.3262C316.8 22.3262 317.186 22.4148 317.525 22.5919C317.863 22.7691 318.169 23.043 318.427 23.3973V22.455H319.079V22.4631ZM316.437 22.9705C316.067 22.9705 315.729 23.0591 315.423 23.2443C315.109 23.4215 314.867 23.6792 314.682 24.0094C314.497 24.3396 314.408 24.6779 314.408 25.0483C314.408 25.4107 314.505 25.757 314.69 26.0872C314.875 26.4174 315.125 26.6752 315.439 26.8604C315.753 27.0456 316.083 27.1342 316.446 27.1342C316.808 27.1342 317.146 27.0456 317.476 26.8604C317.799 26.6752 318.048 26.4336 318.225 26.1195C318.403 25.8054 318.483 25.4591 318.483 25.0644C318.483 24.4685 318.29 23.9772 317.895 23.5745C317.493 23.1718 317.009 22.9705 316.437 22.9705Z" fill="#1E70B8"/>
<path d="M320.568 22.4631H321.229V23.3812C321.495 23.0268 321.784 22.7691 322.107 22.5919C322.429 22.4148 322.775 22.3262 323.154 22.3262C323.54 22.3262 323.878 22.4228 324.176 22.6161C324.474 22.8094 324.692 23.0752 324.837 23.4054C324.982 23.7356 325.046 24.251 325.046 24.9517V27.5933H324.386V25.145C324.386 24.557 324.362 24.1624 324.313 23.9611C324.233 23.6228 324.088 23.3651 323.87 23.196C323.653 23.0268 323.371 22.9383 323.025 22.9383C322.622 22.9383 322.268 23.0671 321.954 23.3329C321.64 23.5987 321.43 23.9208 321.325 24.3154C321.261 24.5732 321.229 25.0322 321.229 25.7087V27.5933H320.568V22.4631Z" fill="#1E70B8"/>
<path d="M325.9 22.4609H326.601L328.365 26.4153L330.08 22.4609H330.781L327.721 29.4757H327.02L328.01 27.2126L325.9 22.4609Z" fill="#1E70B8"/>
<path d="M336.733 22.334C337.522 22.334 338.174 22.6239 338.698 23.1957C339.173 23.7192 339.406 24.3394 339.406 25.0481C339.406 25.7649 339.157 26.393 338.657 26.9246C338.158 27.4642 337.514 27.73 336.733 27.73C335.943 27.73 335.299 27.4642 334.8 26.9246C334.3 26.385 334.051 25.7649 334.051 25.0481C334.051 24.3394 334.284 23.7192 334.76 23.1957C335.283 22.6239 335.943 22.334 336.733 22.334ZM336.733 22.9783C336.185 22.9783 335.71 23.1796 335.315 23.5904C334.921 23.993 334.727 24.4843 334.727 25.0642C334.727 25.4347 334.816 25.781 334.993 26.1031C335.17 26.4253 335.412 26.6749 335.718 26.8441C336.024 27.0212 336.362 27.1098 336.725 27.1098C337.087 27.1098 337.425 27.0212 337.731 26.8441C338.037 26.6669 338.279 26.4253 338.456 26.1031C338.633 25.781 338.722 25.4347 338.722 25.0642C338.722 24.4924 338.521 24.0011 338.126 23.5904C337.731 23.1796 337.28 22.9783 336.733 22.9783Z" fill="#1E70B8"/>
<path d="M342.74 20.4807V21.125C342.498 21.0203 342.289 20.9719 342.12 20.9719C341.991 20.9719 341.886 20.9961 341.798 21.0525C341.709 21.1089 341.661 21.1652 341.637 21.2297C341.613 21.2941 341.604 21.4793 341.604 21.7693V22.4619H342.676V23.0337H341.604V27.6001H340.944V23.0337H340.268V22.4619H340.944V21.6565C340.944 21.286 340.976 21.0283 341.049 20.8672C341.113 20.7062 341.234 20.5854 341.395 20.4887C341.556 20.3921 341.749 20.3438 341.983 20.3438C342.184 20.3518 342.442 20.3921 342.74 20.4807Z" fill="#1E70B8"/>
<path d="M346.913 20.5527H347.573V22.4615H348.62V23.0333H347.573V27.5997H346.913V23.0333H346.011V22.4615H346.913V20.5527Z" fill="#1E70B8"/>
<path d="M349.611 20.4805H350.271V23.3798C350.537 23.0254 350.835 22.7677 351.149 22.5905C351.463 22.4134 351.817 22.3248 352.188 22.3248C352.574 22.3248 352.913 22.4214 353.211 22.6147C353.509 22.808 353.726 23.0738 353.871 23.404C354.016 23.7342 354.08 24.2496 354.08 24.9503V27.5919H353.42V25.1436C353.42 24.5556 353.396 24.161 353.348 23.9597C353.267 23.6214 353.114 23.3637 352.905 23.1946C352.687 23.0254 352.405 22.9368 352.059 22.9368C351.656 22.9368 351.302 23.0657 350.988 23.3315C350.674 23.5972 350.464 23.9194 350.36 24.314C350.295 24.5637 350.263 25.0308 350.263 25.7073V27.5919H349.603V20.4805H349.611Z" fill="#1E70B8"/>
<path d="M359.815 25.894L360.37 26.1839C360.185 26.5463 359.976 26.8282 359.734 27.0537C359.493 27.2711 359.227 27.4403 358.929 27.553C358.631 27.6658 358.293 27.7221 357.914 27.7221C357.076 27.7221 356.424 27.4483 355.949 26.9007C355.474 26.353 355.24 25.7329 355.24 25.0403C355.24 24.3879 355.442 23.8081 355.836 23.3007C356.344 22.6564 357.02 22.3262 357.874 22.3262C358.752 22.3262 359.444 22.6564 359.968 23.3248C360.338 23.7919 360.532 24.3799 360.532 25.0805H355.917C355.933 25.6765 356.118 26.1678 356.489 26.5463C356.859 26.9248 357.31 27.1181 357.85 27.1181C358.107 27.1181 358.365 27.0698 358.615 26.9812C358.864 26.8926 359.074 26.7718 359.243 26.6188C359.428 26.4738 359.613 26.2322 359.815 25.894ZM359.815 24.5168C359.726 24.1624 359.597 23.8805 359.428 23.6711C359.259 23.4617 359.042 23.2926 358.76 23.1638C358.486 23.0349 358.188 22.9705 357.89 22.9705C357.383 22.9705 356.956 23.1315 356.593 23.4537C356.327 23.6872 356.126 24.0416 355.997 24.5168H359.815Z" fill="#1E70B8"/>
<path d="M364.235 27.6005L365.226 20.6582H365.339L368.157 26.3522L370.952 20.6582H371.065L372.064 27.6005H371.387L370.702 22.6394L368.246 27.6005H368.069L365.588 22.5991L364.904 27.6005H364.235Z" fill="#1E70B8"/>
<path d="M373.545 20.3516C373.698 20.3516 373.827 20.4079 373.932 20.5126C374.037 20.6173 374.093 20.7462 374.093 20.8992C374.093 21.0442 374.037 21.173 373.932 21.2777C373.827 21.3824 373.698 21.4388 373.545 21.4388C373.401 21.4388 373.272 21.3824 373.167 21.2777C373.062 21.173 373.006 21.0442 373.006 20.8992C373.006 20.7462 373.062 20.6173 373.167 20.5126C373.272 20.3999 373.401 20.3516 373.545 20.3516ZM373.223 22.4616H373.884V27.5999H373.223V22.4616Z" fill="#1E70B8"/>
<path d="M380.375 20.4807V27.6002H379.723V26.7143C379.449 27.0525 379.135 27.3022 378.788 27.4713C378.442 27.6404 378.072 27.729 377.661 27.729C376.936 27.729 376.316 27.4633 375.8 26.9398C375.285 26.4163 375.027 25.772 375.027 25.0149C375.027 24.274 375.285 23.6458 375.809 23.1143C376.332 22.5827 376.952 22.325 377.677 22.325C378.096 22.325 378.482 22.4136 378.821 22.5908C379.159 22.768 379.465 23.0418 379.723 23.3961V20.4727H380.375V20.4807ZM377.733 22.9693C377.363 22.9693 377.025 23.0579 376.719 23.2431C376.405 23.4203 376.163 23.678 375.978 24.0082C375.792 24.3384 375.704 24.6767 375.704 25.0472C375.704 25.4096 375.801 25.7559 375.986 26.0861C376.171 26.4163 376.421 26.674 376.735 26.8592C377.049 27.0445 377.379 27.1331 377.741 27.1331C378.104 27.1331 378.442 27.0445 378.772 26.8592C379.094 26.674 379.344 26.4324 379.521 26.1183C379.698 25.8042 379.779 25.4579 379.779 25.0633C379.779 24.4673 379.586 23.976 379.191 23.5733C378.788 23.1706 378.305 22.9693 377.733 22.9693Z" fill="#1E70B8"/>
<path d="M381.173 22.4609H381.849L383.42 26.1898L385.055 22.4609H385.176L386.827 26.1898L388.429 22.4609H389.114L386.883 27.5992H386.762L385.119 23.9267L383.476 27.5992H383.355L381.173 22.4609Z" fill="#1E70B8"/>
<path d="M394.211 25.894L394.767 26.1839C394.582 26.5463 394.372 26.8282 394.131 27.0537C393.889 27.2711 393.623 27.4403 393.325 27.553C393.027 27.6658 392.689 27.7221 392.311 27.7221C391.473 27.7221 390.821 27.4483 390.345 26.9007C389.87 26.353 389.637 25.7329 389.637 25.0403C389.637 24.3879 389.838 23.8081 390.233 23.3007C390.74 22.6564 391.417 22.3262 392.27 22.3262C393.148 22.3262 393.841 22.6564 394.364 23.3248C394.735 23.7919 394.928 24.3799 394.928 25.0805H390.313C390.329 25.6765 390.515 26.1678 390.885 26.5463C391.256 26.9248 391.707 27.1181 392.246 27.1181C392.504 27.1181 392.762 27.0698 393.011 26.9812C393.261 26.8926 393.47 26.7718 393.639 26.6188C393.825 26.4738 394.01 26.2322 394.211 25.894ZM394.211 24.5168C394.123 24.1624 393.994 23.8805 393.825 23.6711C393.656 23.4617 393.438 23.2926 393.156 23.1638C392.882 23.0349 392.584 22.9705 392.286 22.9705C391.779 22.9705 391.352 23.1315 390.99 23.4537C390.724 23.6872 390.523 24.0416 390.394 24.5168H394.211Z" fill="#1E70B8"/>
<path d="M398.754 23.0254L398.327 23.4603C397.973 23.114 397.626 22.9448 397.288 22.9448C397.071 22.9448 396.894 23.0173 396.741 23.1542C396.588 23.2992 396.515 23.4603 396.515 23.6536C396.515 23.8227 396.58 23.9757 396.7 24.1287C396.829 24.2817 397.095 24.467 397.498 24.6683C397.989 24.926 398.319 25.1677 398.496 25.4012C398.673 25.6428 398.754 25.9086 398.754 26.2066C398.754 26.6254 398.609 26.9878 398.311 27.2777C398.013 27.5677 397.643 27.7126 397.2 27.7126C396.902 27.7126 396.62 27.6482 396.354 27.5193C396.088 27.3905 395.863 27.2133 395.686 26.9878L396.104 26.5126C396.443 26.8911 396.797 27.0844 397.175 27.0844C397.441 27.0844 397.667 26.9958 397.852 26.8267C398.037 26.6576 398.134 26.4562 398.134 26.2307C398.134 26.0455 398.069 25.8764 397.949 25.7234C397.828 25.5784 397.546 25.3932 397.119 25.1757C396.66 24.9341 396.338 24.7005 396.177 24.467C396.008 24.2334 395.927 23.9677 395.927 23.6697C395.927 23.2831 396.056 22.9529 396.33 22.6952C396.596 22.4375 396.934 22.3086 397.337 22.3086C397.796 22.3328 398.271 22.5663 398.754 23.0254Z" fill="#1E70B8"/>
<path d="M400.494 20.5527H401.154V22.4615H402.201V23.0333H401.154V27.5997H400.494V23.0333H399.592V22.4615H400.494V20.5527Z" fill="#1E70B8"/>
<path d="M176.126 33.5449H177.511C178.3 33.5449 178.84 33.5771 179.114 33.6496C179.509 33.7463 179.831 33.9476 180.088 34.2536C180.338 34.5597 180.467 34.9382 180.467 35.3973C180.467 35.8563 180.346 36.2429 180.096 36.5409C179.847 36.8389 179.517 37.0402 179.082 37.1449C178.768 37.2174 178.18 37.2577 177.318 37.2577H176.827V40.4872H176.134V33.5449H176.126ZM176.819 34.2214V36.5731L177.994 36.5892C178.47 36.5892 178.816 36.5489 179.033 36.4604C179.251 36.3718 179.428 36.2349 179.549 36.0416C179.678 35.8483 179.734 35.6308 179.734 35.3973C179.734 35.1637 179.67 34.9543 179.549 34.761C179.42 34.5677 179.259 34.4308 179.049 34.3503C178.84 34.2698 178.51 34.2295 178.035 34.2295H176.819V34.2214Z" fill="#1E70B8"/>
<path d="M181.732 33.3672H182.392V36.2665C182.658 35.9122 182.956 35.6544 183.27 35.4773C183.584 35.3001 183.938 35.2115 184.309 35.2115C184.695 35.2115 185.034 35.3081 185.332 35.5014C185.63 35.6947 185.847 35.9605 185.992 36.2907C186.137 36.6209 186.201 37.1363 186.201 37.837V40.4786H185.541V38.0303C185.541 37.4424 185.517 37.0477 185.469 36.8464C185.388 36.5081 185.235 36.2504 185.026 36.0813C184.808 35.9122 184.526 35.8236 184.18 35.8236C183.777 35.8236 183.423 35.9524 183.109 36.2182C182.795 36.484 182.585 36.8061 182.481 37.2007C182.416 37.4504 182.384 37.9175 182.384 38.594V40.4786H181.724V33.3672H181.732Z" fill="#1E70B8"/>
<path d="M187.852 33.2383C188.005 33.2383 188.134 33.2947 188.239 33.3994C188.343 33.5041 188.4 33.6329 188.4 33.7859C188.4 33.9309 188.343 34.0598 188.239 34.1645C188.134 34.2692 188.005 34.3255 187.852 34.3255C187.707 34.3255 187.578 34.2692 187.474 34.1645C187.369 34.0598 187.312 33.9309 187.312 33.7859C187.312 33.6329 187.369 33.5041 187.474 33.3994C187.578 33.2866 187.707 33.2383 187.852 33.2383ZM187.522 35.3483H188.182V40.4866H187.522V35.3483Z" fill="#1E70B8"/>
<path d="M189.455 33.3672H190.115V40.4867H189.455V33.3672Z" fill="#1E70B8"/>
<path d="M196.599 35.3478V40.4861H195.946V39.6002C195.672 39.9385 195.358 40.1881 195.012 40.3572C194.666 40.5264 194.295 40.615 193.885 40.615C193.16 40.615 192.54 40.3492 192.024 39.8257C191.509 39.3022 191.251 38.6579 191.251 37.9009C191.251 37.1599 191.509 36.5317 192.032 36.0002C192.556 35.4687 193.176 35.2109 193.901 35.2109C194.319 35.2109 194.706 35.2995 195.044 35.4767C195.383 35.6539 195.689 35.9277 195.946 36.2821V35.3398H196.599V35.3478ZM193.965 35.8552C193.595 35.8552 193.256 35.9438 192.95 36.1291C192.636 36.3062 192.395 36.564 192.209 36.8942C192.024 37.2244 191.936 37.5626 191.936 37.9331C191.936 38.2955 192.032 38.6418 192.209 38.972C192.395 39.3022 192.644 39.5599 192.958 39.7452C193.272 39.9304 193.603 40.019 193.965 40.019C194.327 40.019 194.666 39.9304 194.988 39.7452C195.31 39.5599 195.56 39.3183 195.737 39.0042C195.914 38.6901 195.995 38.3438 195.995 37.9492C195.995 37.3532 195.801 36.8619 195.407 36.4593C195.02 36.0566 194.537 35.8552 193.965 35.8552Z" fill="#1E70B8"/>
<path d="M203.211 33.3674V40.4869H202.559V39.601C202.285 39.9392 201.971 40.1889 201.624 40.358C201.278 40.5272 200.908 40.6158 200.497 40.6158C199.772 40.6158 199.152 40.35 198.636 39.8265C198.121 39.303 197.863 38.6587 197.863 37.9017C197.863 37.1607 198.121 36.5325 198.644 36.001C199.168 35.4694 199.788 35.2117 200.513 35.2117C200.932 35.2117 201.318 35.3003 201.657 35.4775C201.995 35.6547 202.301 35.9285 202.559 36.2829V33.3594H203.211V33.3674ZM200.569 35.856C200.199 35.856 199.861 35.9446 199.555 36.1298C199.24 36.307 198.999 36.5647 198.814 36.8949C198.628 37.2251 198.54 37.5634 198.54 37.9339C198.54 38.2963 198.636 38.6426 198.822 38.9728C199.007 39.303 199.257 39.5607 199.571 39.746C199.885 39.9312 200.215 40.0198 200.577 40.0198C200.94 40.0198 201.278 39.9312 201.608 39.746C201.93 39.5607 202.18 39.3191 202.357 39.005C202.534 38.6909 202.615 38.3446 202.615 37.95C202.615 37.354 202.422 36.8627 202.027 36.46C201.624 36.0574 201.141 35.856 200.569 35.856Z" fill="#1E70B8"/>
<path d="M209.026 38.7787L209.581 39.0687C209.396 39.4311 209.187 39.7129 208.945 39.9385C208.704 40.1559 208.438 40.325 208.14 40.4378C207.842 40.5505 207.504 40.6069 207.125 40.6069C206.287 40.6069 205.635 40.3331 205.16 39.7854C204.685 39.2378 204.451 38.6176 204.451 37.925C204.451 37.2727 204.653 36.6928 205.047 36.1854C205.555 35.5411 206.231 35.2109 207.085 35.2109C207.963 35.2109 208.655 35.5411 209.179 36.2096C209.549 36.6767 209.742 37.2646 209.742 37.9653H205.128C205.144 38.5613 205.329 39.0525 205.699 39.4311C206.07 39.8096 206.521 40.0029 207.061 40.0029C207.318 40.0029 207.576 39.9546 207.826 39.866C208.075 39.7774 208.285 39.6566 208.454 39.5036C208.631 39.3586 208.824 39.117 209.026 38.7787ZM209.026 37.4015C208.937 37.0472 208.808 36.7653 208.639 36.5559C208.47 36.3465 208.244 36.1774 207.971 36.0485C207.697 35.9197 207.399 35.8552 207.093 35.8552C206.585 35.8552 206.159 36.0163 205.796 36.3385C205.53 36.572 205.329 36.9264 205.2 37.4015H209.026Z" fill="#1E70B8"/>
<path d="M210.878 33.3672H211.538V40.4867H210.878V33.3672Z" fill="#1E70B8"/>
<path d="M212.924 35.3476H213.584V36.2899C213.842 35.9275 214.148 35.6617 214.486 35.4845C214.825 35.3073 215.203 35.2188 215.622 35.2188C216.347 35.2188 216.975 35.4845 217.49 36.008C218.006 36.5315 218.271 37.1677 218.271 37.9087C218.271 38.6657 218.014 39.302 217.498 39.8335C216.983 40.3651 216.363 40.6228 215.638 40.6228C215.227 40.6228 214.857 40.5342 214.51 40.3651C214.164 40.1959 213.858 39.9382 213.584 39.608V42.3704H212.924V35.3476ZM215.565 35.855C214.994 35.855 214.51 36.0563 214.124 36.451C213.737 36.8536 213.536 37.3449 213.536 37.9409C213.536 38.3275 213.624 38.6818 213.794 38.9959C213.971 39.31 214.22 39.5516 214.543 39.7369C214.865 39.9221 215.211 40.0107 215.573 40.0107C215.928 40.0107 216.258 39.9221 216.572 39.7369C216.886 39.5516 217.136 39.2939 217.321 38.9637C217.506 38.6335 217.595 38.2872 217.595 37.9248C217.595 37.5624 217.506 37.2161 217.321 36.8859C217.136 36.5557 216.894 36.306 216.58 36.1208C216.266 35.9436 215.928 35.855 215.565 35.855Z" fill="#1E70B8"/>
<path d="M219.503 33.3672H220.164V36.2665C220.429 35.9122 220.727 35.6544 221.041 35.4773C221.356 35.3001 221.71 35.2115 222.08 35.2115C222.467 35.2115 222.805 35.3081 223.103 35.5014C223.401 35.6947 223.619 35.9605 223.764 36.2907C223.909 36.6209 223.973 37.1363 223.973 37.837V40.4786H223.313V38.0303C223.313 37.4424 223.288 37.0477 223.24 36.8464C223.16 36.5081 223.007 36.2504 222.797 36.0813C222.58 35.9122 222.298 35.8236 221.951 35.8236C221.549 35.8236 221.194 35.9524 220.88 36.2182C220.566 36.484 220.357 36.8061 220.252 37.2007C220.188 37.4504 220.156 37.9175 220.156 38.594V40.4786H219.495V33.3672H219.503Z" fill="#1E70B8"/>
<path d="M225.616 33.2383C225.769 33.2383 225.898 33.2947 226.002 33.3994C226.107 33.5041 226.163 33.6329 226.163 33.7859C226.163 33.9309 226.107 34.0598 226.002 34.1645C225.898 34.2692 225.769 34.3255 225.616 34.3255C225.471 34.3255 225.342 34.2692 225.237 34.1645C225.133 34.0598 225.076 33.9309 225.076 33.7859C225.076 33.6329 225.133 33.5041 225.237 33.3994C225.342 33.2947 225.471 33.2383 225.616 33.2383ZM225.294 35.3483H225.954V40.4866H225.294V35.3483Z" fill="#1E70B8"/>
<path d="M232.437 35.3478V40.4861H231.785V39.6002C231.511 39.9385 231.197 40.1881 230.851 40.3572C230.505 40.5264 230.134 40.615 229.723 40.615C228.999 40.615 228.378 40.3492 227.863 39.8257C227.348 39.3022 227.09 38.6579 227.09 37.9009C227.09 37.1599 227.348 36.5317 227.871 36.0002C228.395 35.4687 229.015 35.2109 229.74 35.2109C230.158 35.2109 230.545 35.2995 230.883 35.4767C231.221 35.6539 231.527 35.9277 231.785 36.2821V35.3398H232.437V35.3478ZM229.796 35.8552C229.425 35.8552 229.087 35.9438 228.781 36.1291C228.467 36.3062 228.225 36.564 228.04 36.8942C227.855 37.2244 227.766 37.5626 227.766 37.9331C227.766 38.2955 227.863 38.6418 228.048 38.972C228.233 39.3022 228.483 39.5599 228.797 39.7452C229.111 39.9304 229.442 40.019 229.804 40.019C230.166 40.019 230.505 39.9304 230.835 39.7452C231.157 39.5599 231.407 39.3183 231.584 39.0042C231.761 38.6901 231.842 38.3438 231.842 37.9492C231.842 37.3532 231.648 36.8619 231.254 36.4593C230.851 36.0566 230.368 35.8552 229.796 35.8552Z" fill="#1E70B8"/>
<path d="M239.533 33.5449L242.77 40.4872H242.021L240.934 38.2H237.946L236.867 40.4872H236.094L239.372 33.5449H239.533ZM239.452 35.0187L238.26 37.5315H240.636L239.452 35.0187Z" fill="#1E70B8"/>
<path d="M243.729 35.3481H244.389V36.234C244.614 35.9038 244.856 35.6702 245.098 35.5172C245.428 35.3159 245.782 35.2112 246.153 35.2112C246.402 35.2112 246.636 35.2595 246.861 35.3561C247.087 35.4528 247.264 35.5817 247.409 35.7427C247.554 35.9038 247.675 36.1374 247.78 36.4353C247.997 36.0327 248.271 35.7266 248.601 35.5172C248.931 35.3078 249.286 35.2031 249.664 35.2031C250.018 35.2031 250.333 35.2917 250.606 35.4689C250.88 35.6461 251.082 35.8957 251.21 36.2179C251.339 36.54 251.404 37.0233 251.404 37.6595V40.4622H250.727V37.6595C250.727 37.1118 250.687 36.7333 250.606 36.5239C250.526 36.3145 250.397 36.1535 250.204 36.0246C250.01 35.8957 249.785 35.8394 249.527 35.8394C249.205 35.8394 248.915 35.936 248.649 36.1212C248.384 36.3065 248.19 36.5642 248.069 36.8783C247.949 37.1924 247.884 37.7159 247.884 38.4568V40.4702H247.224V37.8528C247.224 37.2327 247.184 36.8139 247.111 36.5884C247.031 36.3629 246.902 36.1857 246.708 36.0568C246.515 35.928 246.29 35.8555 246.024 35.8555C245.718 35.8555 245.436 35.9441 245.17 36.1293C244.904 36.3145 244.711 36.5642 244.582 36.8702C244.453 37.1763 244.389 37.6595 244.389 38.3038V40.4783H243.729V35.3481Z" fill="#1E70B8"/>
<path d="M257.114 38.7787L257.669 39.0687C257.484 39.4311 257.275 39.7129 257.033 39.9385C256.791 40.1559 256.526 40.325 256.228 40.4378C255.93 40.5505 255.591 40.6069 255.213 40.6069C254.375 40.6069 253.723 40.3331 253.248 39.7854C252.773 39.2378 252.539 38.6176 252.539 37.925C252.539 37.2727 252.74 36.6928 253.135 36.1854C253.642 35.5411 254.319 35.2109 255.173 35.2109C256.05 35.2109 256.743 35.5411 257.267 36.2096C257.637 36.6767 257.83 37.2646 257.83 37.9653H253.216C253.232 38.5613 253.417 39.0525 253.787 39.4311C254.158 39.8096 254.609 40.0029 255.148 40.0029C255.406 40.0029 255.664 39.9546 255.914 39.866C256.163 39.7774 256.373 39.6566 256.542 39.5036C256.727 39.3586 256.912 39.117 257.114 38.7787ZM257.114 37.4015C257.025 37.0472 256.896 36.7653 256.727 36.5559C256.558 36.3465 256.34 36.1774 256.059 36.0485C255.785 35.9197 255.487 35.8552 255.189 35.8552C254.681 35.8552 254.254 36.0163 253.892 36.3385C253.626 36.572 253.425 36.9264 253.296 37.4015H257.114Z" fill="#1E70B8"/>
<path d="M258.821 35.3476H259.498V36.0966C259.699 35.7986 259.909 35.5812 260.134 35.4362C260.36 35.2912 260.593 35.2188 260.835 35.2188C261.02 35.2188 261.213 35.2751 261.423 35.3959L261.076 35.9516C260.939 35.8953 260.819 35.863 260.73 35.863C260.513 35.863 260.295 35.9516 260.094 36.1369C259.892 36.3141 259.731 36.5959 259.627 36.9825C259.546 37.2724 259.506 37.8684 259.506 38.7543V40.4939H258.829V35.3476H258.821Z" fill="#1E70B8"/>
<path d="M262.204 33.2383C262.357 33.2383 262.486 33.2947 262.59 33.3994C262.695 33.5041 262.751 33.6329 262.751 33.7859C262.751 33.9309 262.695 34.0598 262.59 34.1645C262.486 34.2692 262.357 34.3255 262.204 34.3255C262.059 34.3255 261.93 34.2692 261.825 34.1645C261.72 34.0598 261.664 33.9309 261.664 33.7859C261.664 33.6329 261.72 33.5041 261.825 33.3994C261.93 33.2947 262.059 33.2383 262.204 33.2383ZM261.873 35.3483H262.534V40.4866H261.873V35.3483Z" fill="#1E70B8"/>
<path d="M268.888 36.419L268.365 36.7411C267.914 36.1371 267.294 35.8391 266.512 35.8391C265.884 35.8391 265.369 36.0405 264.958 36.4432C264.547 36.8458 264.338 37.3371 264.338 37.9089C264.338 38.2794 264.435 38.6338 264.62 38.964C264.813 39.2942 265.071 39.5519 265.401 39.7291C265.731 39.9143 266.102 40.0029 266.512 40.0029C267.269 40.0029 267.882 39.7049 268.357 39.1009L268.88 39.4472C268.639 39.8176 268.308 40.0995 267.89 40.3089C267.471 40.5183 267.004 40.615 266.48 40.615C265.667 40.615 264.998 40.3572 264.459 39.8418C263.927 39.3264 263.653 38.6982 263.653 37.9572C263.653 37.4579 263.782 36.9989 264.032 36.572C264.282 36.1452 264.628 35.815 265.063 35.5734C265.498 35.3317 265.989 35.2109 266.528 35.2109C266.867 35.2109 267.197 35.2593 267.511 35.364C267.825 35.4687 268.099 35.6056 268.316 35.7666C268.534 35.9277 268.735 36.1613 268.888 36.419Z" fill="#1E70B8"/>
<path d="M275.267 35.3478V40.4861H274.614V39.6002C274.34 39.9385 274.026 40.1881 273.68 40.3572C273.334 40.5264 272.963 40.615 272.553 40.615C271.828 40.615 271.208 40.3492 270.692 39.8257C270.177 39.3022 269.919 38.6579 269.919 37.9009C269.919 37.1599 270.177 36.5317 270.7 36.0002C271.224 35.4687 271.844 35.2109 272.569 35.2109C272.987 35.2109 273.374 35.2995 273.712 35.4767C274.05 35.6539 274.357 35.9277 274.614 36.2821V35.3398H275.267V35.3478ZM272.633 35.8552C272.263 35.8552 271.924 35.9438 271.618 36.1291C271.304 36.3062 271.063 36.564 270.877 36.8942C270.692 37.2244 270.604 37.5626 270.604 37.9331C270.604 38.2955 270.7 38.6418 270.885 38.972C271.071 39.3022 271.32 39.5599 271.634 39.7452C271.948 39.9304 272.279 40.019 272.641 40.019C273.004 40.019 273.342 39.9304 273.672 39.7452C273.994 39.5599 274.244 39.3183 274.421 39.0042C274.598 38.6901 274.679 38.3438 274.679 37.9492C274.679 37.3532 274.485 36.8619 274.091 36.4593C273.68 36.0566 273.205 35.8552 272.633 35.8552Z" fill="#1E70B8"/>
<path d="M276.757 35.3478H277.417V36.266C277.683 35.9116 277.973 35.6539 278.295 35.4767C278.617 35.2995 278.964 35.2109 279.342 35.2109C279.729 35.2109 280.067 35.3076 280.365 35.5009C280.663 35.6942 280.88 35.9599 281.025 36.2901C281.17 36.6203 281.235 37.1358 281.235 37.8364V40.478H280.574V38.0297C280.574 37.4418 280.55 37.0472 280.502 36.8458C280.421 36.5076 280.276 36.2499 280.059 36.0807C279.841 35.9116 279.56 35.823 279.213 35.823C278.811 35.823 278.456 35.9519 278.142 36.2176C277.828 36.4834 277.619 36.8056 277.514 37.2002C277.449 37.4579 277.417 37.917 277.417 38.5935V40.478H276.757V35.3478Z" fill="#1E70B8"/>
<path d="M285.423 33.5449H286.115V39.8187H288.781V40.4872H285.423V33.5449Z" fill="#1E70B8"/>
<path d="M290.005 33.2383C290.158 33.2383 290.287 33.2947 290.392 33.3994C290.497 33.5041 290.553 33.6329 290.553 33.7859C290.553 33.9309 290.497 34.0598 290.392 34.1645C290.287 34.2692 290.158 34.3255 290.005 34.3255C289.86 34.3255 289.732 34.2692 289.627 34.1645C289.522 34.0598 289.466 33.9309 289.466 33.7859C289.466 33.6329 289.522 33.5041 289.627 33.3994C289.732 33.2866 289.86 33.2383 290.005 33.2383ZM289.683 35.3483H290.344V40.4866H289.683V35.3483Z" fill="#1E70B8"/>
<path d="M293.823 33.3674V34.0117C293.581 33.907 293.372 33.8587 293.203 33.8587C293.074 33.8587 292.969 33.8828 292.881 33.9392C292.792 33.9956 292.744 34.0519 292.72 34.1164C292.696 34.1808 292.688 34.366 292.688 34.656V35.3486H293.759V35.9204H292.688V40.4868H292.027V35.9204H291.351V35.3486H292.027V34.5432C292.027 34.1728 292.059 33.915 292.132 33.754C292.196 33.5929 292.317 33.4721 292.478 33.3754C292.639 33.2788 292.832 33.2305 293.066 33.2305C293.267 33.2385 293.525 33.2788 293.823 33.3674Z" fill="#1E70B8"/>
<path d="M299.066 38.7787L299.621 39.0687C299.436 39.4311 299.227 39.7129 298.985 39.9385C298.744 40.1559 298.478 40.325 298.18 40.4378C297.882 40.5505 297.544 40.6069 297.165 40.6069C296.327 40.6069 295.675 40.3331 295.2 39.7854C294.725 39.2378 294.491 38.6176 294.491 37.925C294.491 37.2727 294.693 36.6928 295.087 36.1854C295.595 35.5411 296.271 35.2109 297.125 35.2109C298.003 35.2109 298.695 35.5411 299.219 36.2096C299.589 36.6767 299.782 37.2646 299.782 37.9653H295.168C295.184 38.5613 295.369 39.0525 295.74 39.4311C296.11 39.8096 296.561 40.0029 297.101 40.0029C297.358 40.0029 297.616 39.9546 297.866 39.866C298.115 39.7774 298.325 39.6566 298.494 39.5036C298.671 39.3586 298.864 39.117 299.066 38.7787ZM299.066 37.4015C298.977 37.0472 298.848 36.7653 298.679 36.5559C298.51 36.3465 298.293 36.1774 298.011 36.0485C297.737 35.9197 297.439 35.8552 297.141 35.8552C296.633 35.8552 296.207 36.0163 295.844 36.3385C295.578 36.572 295.377 36.9264 295.248 37.4015H299.066Z" fill="#1E70B8"/>
<path d="M303.704 33.5449H304.397V40.4872H303.704V33.5449Z" fill="#1E70B8"/>
<path d="M305.879 35.3478H306.539V36.266C306.805 35.9116 307.095 35.6539 307.417 35.4767C307.739 35.2995 308.086 35.2109 308.464 35.2109C308.851 35.2109 309.189 35.3076 309.487 35.5009C309.785 35.6942 310.002 35.9599 310.147 36.2901C310.292 36.6203 310.357 37.1358 310.357 37.8364V40.478H309.696V38.0297C309.696 37.4418 309.672 37.0472 309.624 36.8458C309.543 36.5076 309.398 36.2499 309.181 36.0807C308.963 35.9116 308.682 35.823 308.335 35.823C307.933 35.823 307.578 35.9519 307.264 36.2176C306.95 36.4834 306.741 36.8056 306.636 37.2002C306.572 37.4579 306.539 37.917 306.539 38.5935V40.478H305.879V35.3478Z" fill="#1E70B8"/>
<path d="M314.344 35.9121L313.917 36.347C313.563 36.0007 313.216 35.8316 312.878 35.8316C312.661 35.8316 312.483 35.904 312.33 36.0409C312.177 36.1859 312.105 36.347 312.105 36.5403C312.105 36.7094 312.169 36.8624 312.29 37.0154C312.419 37.1685 312.685 37.3537 313.087 37.555C313.579 37.8128 313.909 38.0544 314.086 38.2879C314.263 38.5295 314.344 38.7953 314.344 39.0933C314.344 39.5121 314.199 39.8745 313.901 40.1644C313.603 40.4544 313.232 40.5993 312.789 40.5993C312.492 40.5993 312.21 40.5349 311.944 40.406C311.678 40.2772 311.453 40.1 311.275 39.8745L311.694 39.3993C312.032 39.7779 312.387 39.9712 312.765 39.9712C313.031 39.9712 313.257 39.8826 313.442 39.7134C313.627 39.5443 313.724 39.343 313.724 39.1175C313.724 38.9322 313.659 38.7631 313.538 38.6101C313.418 38.4651 313.136 38.2799 312.709 38.0624C312.25 37.8208 311.928 37.5873 311.767 37.3537C311.598 37.1201 311.517 36.8544 311.517 36.5564C311.517 36.1698 311.646 35.8396 311.92 35.5819C312.185 35.3242 312.524 35.1953 312.926 35.1953C313.394 35.2195 313.869 35.453 314.344 35.9121Z" fill="#1E70B8"/>
<path d="M315.431 35.3477H316.091V37.7477C316.091 38.3356 316.124 38.7383 316.188 38.9557C316.285 39.2698 316.462 39.5195 316.728 39.7047C316.993 39.8899 317.307 39.9785 317.678 39.9785C318.048 39.9785 318.362 39.8899 318.612 39.7128C318.87 39.5356 319.047 39.302 319.144 39.0121C319.208 38.8107 319.24 38.392 319.24 37.7557V35.3557H319.917V37.8765C319.917 38.5852 319.836 39.1168 319.667 39.4792C319.498 39.8416 319.256 40.1154 318.918 40.3248C318.58 40.5342 318.169 40.6309 317.67 40.6309C317.171 40.6309 316.752 40.5262 316.422 40.3248C316.083 40.1235 315.834 39.8416 315.673 39.4792C315.511 39.1168 315.423 38.5691 315.423 37.8362V35.3477H315.431Z" fill="#1E70B8"/>
<path d="M321.133 35.3476H321.809V36.0966C322.011 35.7986 322.22 35.5812 322.446 35.4362C322.671 35.2912 322.905 35.2188 323.146 35.2188C323.331 35.2188 323.525 35.2751 323.734 35.3959L323.388 35.9516C323.251 35.8953 323.13 35.863 323.042 35.863C322.824 35.863 322.607 35.9516 322.405 36.1369C322.204 36.3141 322.043 36.5959 321.938 36.9825C321.858 37.2724 321.817 37.8684 321.817 38.7543V40.4939H321.141V35.3476H321.133Z" fill="#1E70B8"/>
<path d="M329.404 35.3478V40.4861H328.752V39.6002C328.478 39.9385 328.164 40.1881 327.818 40.3572C327.471 40.5264 327.101 40.615 326.69 40.615C325.965 40.615 325.345 40.3492 324.83 39.8257C324.314 39.3022 324.057 38.6579 324.057 37.9009C324.057 37.1599 324.314 36.5317 324.838 36.0002C325.361 35.4687 325.981 35.2109 326.706 35.2109C327.125 35.2109 327.512 35.2995 327.85 35.4767C328.188 35.6539 328.494 35.9277 328.752 36.2821V35.3398H329.404V35.3478ZM326.763 35.8552C326.392 35.8552 326.054 35.9438 325.748 36.1291C325.434 36.3062 325.192 36.564 325.007 36.8942C324.822 37.2244 324.733 37.5626 324.733 37.9331C324.733 38.2955 324.83 38.6418 325.015 38.972C325.2 39.3022 325.45 39.5599 325.764 39.7452C326.078 39.9304 326.408 40.019 326.771 40.019C327.133 40.019 327.471 39.9304 327.802 39.7452C328.124 39.5599 328.373 39.3183 328.551 39.0042C328.728 38.6901 328.808 38.3438 328.808 37.9492C328.808 37.3532 328.615 36.8619 328.22 36.4593C327.818 36.0566 327.335 35.8552 326.763 35.8552Z" fill="#1E70B8"/>
<path d="M330.886 35.3478H331.546V36.266C331.812 35.9116 332.102 35.6539 332.424 35.4767C332.746 35.2995 333.092 35.2109 333.471 35.2109C333.858 35.2109 334.196 35.3076 334.494 35.5009C334.792 35.6942 335.009 35.9599 335.154 36.2901C335.299 36.6203 335.364 37.1358 335.364 37.8364V40.478H334.703V38.0297C334.703 37.4418 334.679 37.0472 334.631 36.8458C334.55 36.5076 334.405 36.2499 334.188 36.0807C333.97 35.9116 333.688 35.823 333.342 35.823C332.939 35.823 332.585 35.9519 332.271 36.2176C331.957 36.4834 331.747 36.8056 331.643 37.2002C331.578 37.4579 331.546 37.917 331.546 38.5935V40.478H330.886V35.3478Z" fill="#1E70B8"/>
<path d="M341.758 36.419L341.235 36.7411C340.784 36.1371 340.164 35.8391 339.382 35.8391C338.754 35.8391 338.239 36.0405 337.828 36.4432C337.417 36.8458 337.208 37.3371 337.208 37.9089C337.208 38.2794 337.305 38.6338 337.49 38.964C337.683 39.2942 337.941 39.5519 338.271 39.7291C338.601 39.9143 338.972 40.0029 339.382 40.0029C340.14 40.0029 340.752 39.7049 341.227 39.1009L341.75 39.4472C341.509 39.8176 341.178 40.0995 340.76 40.3089C340.341 40.5183 339.874 40.615 339.35 40.615C338.537 40.615 337.868 40.3572 337.329 39.8418C336.797 39.3264 336.523 38.6982 336.523 37.9572C336.523 37.4579 336.652 36.9989 336.902 36.572C337.152 36.1452 337.498 35.815 337.933 35.5734C338.368 35.3317 338.859 35.2109 339.399 35.2109C339.737 35.2109 340.067 35.2593 340.381 35.364C340.695 35.4687 340.969 35.6056 341.187 35.7666C341.404 35.9277 341.605 36.1613 341.758 36.419Z" fill="#1E70B8"/>
<path d="M347.348 38.7787L347.904 39.0687C347.718 39.4311 347.509 39.7129 347.267 39.9385C347.026 40.1559 346.76 40.325 346.462 40.4378C346.164 40.5505 345.826 40.6069 345.447 40.6069C344.61 40.6069 343.957 40.3331 343.482 39.7854C343.007 39.2378 342.773 38.6176 342.773 37.925C342.773 37.2727 342.975 36.6928 343.369 36.1854C343.877 35.5411 344.553 35.2109 345.407 35.2109C346.285 35.2109 346.977 35.5411 347.501 36.2096C347.871 36.6767 348.065 37.2646 348.065 37.9653H343.45C343.466 38.5613 343.651 39.0525 344.022 39.4311C344.392 39.8096 344.843 40.0029 345.383 40.0029C345.641 40.0029 345.898 39.9546 346.148 39.866C346.398 39.7774 346.607 39.6566 346.776 39.5036C346.953 39.3586 347.147 39.117 347.348 38.7787ZM347.348 37.4015C347.259 37.0472 347.13 36.7653 346.961 36.5559C346.792 36.3465 346.575 36.1774 346.293 36.0485C346.019 35.9197 345.721 35.8552 345.423 35.8552C344.916 35.8552 344.489 36.0163 344.126 36.3385C343.861 36.572 343.659 36.9264 343.53 37.4015H347.348Z" fill="#1E70B8"/>
<path d="M358.542 34.8327L357.994 35.2515C357.696 34.8569 357.334 34.5589 356.907 34.3576C356.48 34.1562 356.021 34.0515 355.514 34.0515C354.958 34.0515 354.45 34.1884 353.975 34.4542C353.5 34.72 353.138 35.0743 352.88 35.5253C352.622 35.9763 352.493 36.4757 352.493 37.0394C352.493 37.8851 352.783 38.5938 353.363 39.1576C353.943 39.7213 354.676 40.0032 355.562 40.0032C356.536 40.0032 357.35 39.6247 358.002 38.8596L358.55 39.2784C358.203 39.7213 357.769 40.0596 357.253 40.3012C356.738 40.5428 356.158 40.6636 355.522 40.6636C354.305 40.6636 353.347 40.2609 352.646 39.4475C352.058 38.7629 351.769 37.9414 351.769 36.975C351.769 35.9602 352.123 35.1065 352.84 34.4139C353.556 33.7213 354.442 33.375 355.514 33.375C356.158 33.375 356.746 33.5039 357.269 33.7616C357.793 34.0193 358.212 34.3656 358.542 34.8327Z" fill="#1E70B8"/>
<path d="M362.255 35.2188C363.044 35.2188 363.697 35.5087 364.22 36.0805C364.695 36.604 364.929 37.2241 364.929 37.9328C364.929 38.6496 364.679 39.2778 364.18 39.8094C363.681 40.349 363.036 40.6147 362.255 40.6147C361.466 40.6147 360.822 40.349 360.322 39.8094C359.823 39.2698 359.573 38.6496 359.573 37.9328C359.573 37.2241 359.807 36.604 360.282 36.0805C360.805 35.5087 361.458 35.2188 362.255 35.2188ZM362.255 35.863C361.707 35.863 361.232 36.0644 360.838 36.4751C360.443 36.8778 360.25 37.3691 360.25 37.949C360.25 38.3194 360.338 38.6657 360.516 38.9879C360.693 39.31 360.934 39.5597 361.24 39.7288C361.546 39.906 361.885 39.9946 362.247 39.9946C362.609 39.9946 362.948 39.906 363.254 39.7288C363.56 39.5516 363.801 39.31 363.979 38.9879C364.156 38.6657 364.244 38.3194 364.244 37.949C364.244 37.3771 364.043 36.8859 363.648 36.4751C363.254 36.0644 362.795 35.863 362.255 35.863Z" fill="#1E70B8"/>
<path d="M366.145 35.3481H366.805V36.234C367.03 35.9038 367.272 35.6702 367.514 35.5172C367.844 35.3159 368.198 35.2112 368.569 35.2112C368.818 35.2112 369.052 35.2595 369.277 35.3561C369.503 35.4528 369.68 35.5817 369.825 35.7427C369.97 35.9038 370.091 36.1374 370.196 36.4353C370.413 36.0327 370.687 35.7266 371.017 35.5172C371.347 35.3078 371.702 35.2031 372.08 35.2031C372.434 35.2031 372.749 35.2917 373.022 35.4689C373.296 35.6461 373.498 35.8957 373.626 36.2179C373.755 36.54 373.82 37.0233 373.82 37.6595V40.4622H373.143V37.6595C373.143 37.1118 373.103 36.7333 373.022 36.5239C372.942 36.3145 372.813 36.1535 372.62 36.0246C372.426 35.8957 372.201 35.8394 371.943 35.8394C371.621 35.8394 371.331 35.936 371.065 36.1212C370.8 36.3065 370.606 36.5642 370.485 36.8783C370.365 37.1924 370.3 37.7159 370.3 38.4568V40.4702H369.64V37.8528C369.64 37.2327 369.6 36.8139 369.527 36.5884C369.455 36.3629 369.318 36.1857 369.124 36.0568C368.931 35.9199 368.706 35.8555 368.44 35.8555C368.134 35.8555 367.852 35.9441 367.586 36.1293C367.32 36.3145 367.127 36.5642 366.998 36.8702C366.869 37.1763 366.805 37.6595 366.805 38.3038V40.4783H366.145V35.3481Z" fill="#1E70B8"/>
<path d="M375.213 35.3476H375.873V36.2899C376.131 35.9275 376.437 35.6617 376.775 35.4845C377.114 35.3073 377.492 35.2188 377.911 35.2188C378.636 35.2188 379.264 35.4845 379.779 36.008C380.295 36.5315 380.561 37.1677 380.561 37.9087C380.561 38.6657 380.303 39.302 379.787 39.8335C379.272 40.3651 378.652 40.6228 377.927 40.6228C377.516 40.6228 377.146 40.5342 376.799 40.3651C376.453 40.1959 376.147 39.9382 375.873 39.608V42.3704H375.213V35.3476ZM377.855 35.855C377.283 35.855 376.799 36.0563 376.413 36.451C376.026 36.8536 375.825 37.3449 375.825 37.9409C375.825 38.3275 375.914 38.6818 376.083 38.9959C376.26 39.31 376.51 39.5516 376.832 39.7369C377.154 39.9221 377.5 40.0107 377.863 40.0107C378.217 40.0107 378.547 39.9221 378.861 39.7369C379.175 39.5516 379.425 39.2939 379.61 38.9637C379.795 38.6335 379.884 38.2872 379.884 37.9248C379.884 37.5624 379.795 37.2161 379.61 36.8859C379.425 36.5557 379.183 36.306 378.869 36.1208C378.563 35.9436 378.225 35.855 377.855 35.855Z" fill="#1E70B8"/>
<path d="M386.907 35.3478V40.4861H386.255V39.6002C385.981 39.9385 385.667 40.1881 385.321 40.3572C384.974 40.5264 384.604 40.615 384.193 40.615C383.468 40.615 382.848 40.3492 382.333 39.8257C381.817 39.3022 381.56 38.6579 381.56 37.9009C381.56 37.1599 381.817 36.5317 382.341 36.0002C382.864 35.4687 383.484 35.2109 384.209 35.2109C384.628 35.2109 385.015 35.2995 385.353 35.4767C385.691 35.6539 385.997 35.9277 386.255 36.2821V35.3398H386.907V35.3478ZM384.266 35.8552C383.895 35.8552 383.557 35.9438 383.251 36.1291C382.937 36.3062 382.695 36.564 382.51 36.8942C382.325 37.2244 382.236 37.5626 382.236 37.9331C382.236 38.2955 382.333 38.6418 382.518 38.972C382.703 39.3022 382.953 39.5599 383.267 39.7452C383.581 39.9304 383.911 40.019 384.274 40.019C384.636 40.019 384.974 39.9304 385.305 39.7452C385.627 39.5599 385.876 39.3183 386.054 39.0042C386.231 38.6901 386.311 38.3438 386.311 37.9492C386.311 37.3532 386.118 36.8619 385.723 36.4593C385.321 36.0566 384.837 35.8552 384.266 35.8552Z" fill="#1E70B8"/>
<path d="M388.389 35.3478H389.049V36.266C389.315 35.9116 389.605 35.6539 389.927 35.4767C390.249 35.2995 390.595 35.2109 390.974 35.2109C391.36 35.2109 391.699 35.3076 391.997 35.5009C392.295 35.6942 392.512 35.9599 392.657 36.2901C392.802 36.6203 392.867 37.1358 392.867 37.8364V40.478H392.206V38.0297C392.206 37.4418 392.182 37.0472 392.134 36.8458C392.053 36.5076 391.908 36.2499 391.691 36.0807C391.473 35.9116 391.191 35.823 390.845 35.823C390.442 35.823 390.088 35.9519 389.774 36.2176C389.46 36.4834 389.25 36.8056 389.146 37.2002C389.081 37.4579 389.049 37.917 389.049 38.5935V40.478H388.389V35.3478Z" fill="#1E70B8"/>
<path d="M393.729 35.3477H394.429L396.193 39.302L397.908 35.3477H398.609L395.549 42.3624H394.848L395.839 40.0993L393.729 35.3477Z" fill="#1E70B8"/>
<path d="M168.113 -0.0488281C168.298 -0.0488281 168.451 0.104192 168.451 0.289427V47.6612C168.451 47.8465 168.298 47.9995 168.113 47.9995C167.927 47.9995 167.774 47.8465 167.774 47.6612V0.289427C167.774 0.104192 167.927 -0.0488281 168.113 -0.0488281Z" fill="#1E70B8"/>
</g>
<defs>
<clipPath id="clip0_1499_20880">
<rect width="402.201" height="48" fill="white"/>
</clipPath>
</defs>
</svg>
